<svg width="1023" height="95" viewBox="0 0 1023 95" fill="none" xmlns="http://www.w3.org/2000/svg">
<mask id="path-1-outside-1_1082_1713" maskUnits="userSpaceOnUse" x="-1" y="-1" width="1026" height="97" fill="black">
<rect fill="white" x="-1" y="-1" width="1026" height="97"/>
<path d="M0.704 93V2.632H20.8V93H0.704ZM56.64 93V2.632H76.864V93H56.64ZM12.736 55.24V37.832H63.296V55.24H12.736ZM122.364 94.408C115.964 94.408 110.161 93 104.956 90.184C99.836 87.2827 95.7827 83.3573 92.796 78.408C89.8093 73.4587 88.316 67.912 88.316 61.768C88.316 55.624 89.8093 50.12 92.796 45.256C95.7827 40.392 99.836 36.552 104.956 33.736C110.076 30.8347 115.879 29.384 122.364 29.384C128.849 29.384 134.652 30.792 139.772 33.608C144.892 36.424 148.945 40.3067 151.932 45.256C154.919 50.12 156.412 55.624 156.412 61.768C156.412 67.912 154.919 73.4587 151.932 78.408C148.945 83.3573 144.892 87.2827 139.772 90.184C134.652 93 128.849 94.408 122.364 94.408ZM122.364 76.616C125.18 76.616 127.655 76.0187 129.788 74.824C131.921 73.544 133.543 71.7947 134.652 69.576C135.847 67.272 136.444 64.6693 136.444 61.768C136.444 58.8667 135.847 56.3493 134.652 54.216C133.457 51.9973 131.793 50.2907 129.66 49.096C127.612 47.816 125.18 47.176 122.364 47.176C119.633 47.176 117.201 47.816 115.068 49.096C112.935 50.2907 111.271 51.9973 110.076 54.216C108.881 56.4347 108.284 58.9947 108.284 61.896C108.284 64.712 108.881 67.272 110.076 69.576C111.271 71.7947 112.935 73.544 115.068 74.824C117.201 76.0187 119.633 76.616 122.364 76.616ZM180.144 93L158.64 30.792H177.84L191.152 75.976L185.52 76.104L200.24 30.792H216.112L230.96 76.104L225.2 75.976L238.64 30.792H257.84L236.336 93H220.336L205.872 49.992H210.736L196.016 93H180.144ZM306.939 93V77.384H328.187C332.112 77.384 335.184 76.232 337.403 73.928C339.622 71.624 340.731 68.808 340.731 65.48C340.731 63.176 340.219 61.128 339.195 59.336C338.171 57.544 336.72 56.136 334.843 55.112C333.051 54.088 330.832 53.576 328.187 53.576H306.939V38.344H326.523C329.851 38.344 332.539 37.5333 334.587 35.912C336.635 34.2053 337.659 31.6453 337.659 28.232C337.659 24.904 336.635 22.4293 334.587 20.808C332.539 19.1013 329.851 18.248 326.523 18.248H306.939V2.632H330.363C336.166 2.632 341.072 3.69866 345.083 5.83199C349.179 7.96533 352.294 10.824 354.427 14.408C356.56 17.992 357.627 21.96 357.627 26.312C357.627 31.8587 355.835 36.552 352.251 40.392C348.667 44.232 343.376 46.8773 336.379 48.328L336.891 41.544C344.486 42.9947 350.331 45.9387 354.427 50.376C358.608 54.8133 360.699 60.2747 360.699 66.76C360.699 71.7093 359.462 76.1893 356.987 80.2C354.598 84.1253 351.099 87.24 346.491 89.544C341.968 91.848 336.507 93 330.107 93H306.939ZM291.579 93V2.632H311.419V93H291.579ZM399.435 94.408C393.718 94.408 388.64 93.256 384.203 90.952C379.851 88.5627 376.438 85.32 373.963 81.224C371.488 77.0427 370.251 72.264 370.251 66.888V30.792H389.835V66.632C389.835 68.7653 390.176 70.6 390.859 72.136C391.627 73.672 392.736 74.8667 394.187 75.72C395.638 76.5733 397.387 77 399.435 77C402.336 77 404.64 76.104 406.347 74.312C408.054 72.4347 408.907 69.8747 408.907 66.632V30.792H428.491V66.76C428.491 72.2213 427.254 77.0427 424.779 81.224C422.304 85.32 418.891 88.5627 414.539 90.952C410.187 93.256 405.152 94.408 399.435 94.408ZM467.283 94.28C461.395 94.28 456.147 92.872 451.539 90.056C447.016 87.24 443.432 83.4 440.787 78.536C438.227 73.672 436.947 68.1253 436.947 61.896C436.947 55.6667 438.227 50.12 440.787 45.256C443.432 40.392 447.016 36.552 451.539 33.736C456.147 30.92 461.395 29.512 467.283 29.512C471.55 29.512 475.39 30.3227 478.803 31.944C482.302 33.5653 485.16 35.8267 487.379 38.728C489.683 41.544 490.963 44.7867 491.219 48.456V74.696C490.963 78.3653 489.726 81.6933 487.507 84.68C485.288 87.5813 482.43 89.928 478.931 91.72C475.432 93.4267 471.55 94.28 467.283 94.28ZM470.739 76.616C473.555 76.616 475.987 76.0187 478.035 74.824C480.083 73.544 481.704 71.7947 482.899 69.576C484.094 67.3573 484.691 64.7973 484.691 61.896C484.691 58.9947 484.094 56.4773 482.899 54.344C481.79 52.1253 480.168 50.376 478.035 49.096C475.987 47.816 473.598 47.176 470.867 47.176C468.136 47.176 465.704 47.816 463.571 49.096C461.523 50.376 459.859 52.1253 458.579 54.344C457.384 56.5627 456.787 59.08 456.787 61.896C456.787 64.712 457.384 67.2293 458.579 69.448C459.774 71.6667 461.438 73.416 463.571 74.696C465.704 75.976 468.094 76.616 470.739 76.616ZM503.123 93H483.923V76.232L486.867 61.128L483.539 46.024V0.0719986H503.123V93ZM539.568 94.536C535.899 94.536 532.272 94.0667 528.688 93.128C525.189 92.1893 521.904 90.8667 518.832 89.16C515.845 87.368 513.285 85.32 511.152 83.016L522.288 71.752C524.336 73.9707 526.768 75.72 529.584 77C532.4 78.1947 535.472 78.792 538.8 78.792C541.104 78.792 542.853 78.4507 544.048 77.768C545.328 77.0853 545.968 76.1467 545.968 74.952C545.968 73.416 545.2 72.264 543.664 71.496C542.213 70.6427 540.336 69.9173 538.032 69.32C535.728 68.6373 533.296 67.912 530.736 67.144C528.176 66.376 525.744 65.3093 523.44 63.944C521.136 62.5787 519.259 60.7013 517.808 58.312C516.357 55.8373 515.632 52.7227 515.632 48.968C515.632 44.9573 516.656 41.5013 518.704 38.6C520.752 35.6133 523.653 33.2667 527.408 31.56C531.163 29.8533 535.557 29 540.592 29C545.883 29 550.747 29.9387 555.184 31.816C559.707 33.608 563.376 36.296 566.192 39.88L555.056 51.144C553.093 48.84 550.875 47.2187 548.4 46.28C546.011 45.3413 543.664 44.872 541.36 44.872C539.141 44.872 537.477 45.2133 536.368 45.896C535.259 46.4933 534.704 47.3893 534.704 48.584C534.704 49.864 535.429 50.888 536.88 51.656C538.331 52.424 540.208 53.1067 542.512 53.704C544.816 54.3013 547.248 55.0267 549.808 55.88C552.368 56.7333 554.8 57.8853 557.104 59.336C559.408 60.7867 561.285 62.7493 562.736 65.224C564.187 67.6133 564.912 70.7707 564.912 74.696C564.912 80.7547 562.608 85.576 558 89.16C553.477 92.744 547.333 94.536 539.568 94.536ZM598.193 94.536C594.524 94.536 590.897 94.0667 587.313 93.128C583.814 92.1893 580.529 90.8667 577.457 89.16C574.47 87.368 571.91 85.32 569.777 83.016L580.913 71.752C582.961 73.9707 585.393 75.72 588.209 77C591.025 78.1947 594.097 78.792 597.425 78.792C599.729 78.792 601.478 78.4507 602.673 77.768C603.953 77.0853 604.593 76.1467 604.593 74.952C604.593 73.416 603.825 72.264 602.289 71.496C600.838 70.6427 598.961 69.9173 596.657 69.32C594.353 68.6373 591.921 67.912 589.361 67.144C586.801 66.376 584.369 65.3093 582.065 63.944C579.761 62.5787 577.884 60.7013 576.433 58.312C574.982 55.8373 574.257 52.7227 574.257 48.968C574.257 44.9573 575.281 41.5013 577.329 38.6C579.377 35.6133 582.278 33.2667 586.033 31.56C589.788 29.8533 594.182 29 599.217 29C604.508 29 609.372 29.9387 613.809 31.816C618.332 33.608 622.001 36.296 624.817 39.88L613.681 51.144C611.718 48.84 609.5 47.2187 607.025 46.28C604.636 45.3413 602.289 44.872 599.985 44.872C597.766 44.872 596.102 45.2133 594.993 45.896C593.884 46.4933 593.329 47.3893 593.329 48.584C593.329 49.864 594.054 50.888 595.505 51.656C596.956 52.424 598.833 53.1067 601.137 53.704C603.441 54.3013 605.873 55.0267 608.433 55.88C610.993 56.7333 613.425 57.8853 615.729 59.336C618.033 60.7867 619.91 62.7493 621.361 65.224C622.812 67.6133 623.537 70.7707 623.537 74.696C623.537 80.7547 621.233 85.576 616.625 89.16C612.102 92.744 605.958 94.536 598.193 94.536ZM682.857 93L653.801 2.632H673.769L695.017 72.136H687.209L707.945 2.632H723.689L744.425 72.136H736.745L757.865 2.632H777.705L748.649 93H732.905L712.041 23.496H719.465L698.601 93H682.857ZM808.739 94.408C802.339 94.408 796.536 93 791.331 90.184C786.211 87.2827 782.158 83.3573 779.171 78.408C776.184 73.4587 774.691 67.912 774.691 61.768C774.691 55.624 776.184 50.12 779.171 45.256C782.158 40.392 786.211 36.552 791.331 33.736C796.451 30.8347 802.254 29.384 808.739 29.384C815.224 29.384 821.027 30.792 826.147 33.608C831.267 36.424 835.32 40.3067 838.307 45.256C841.294 50.12 842.787 55.624 842.787 61.768C842.787 67.912 841.294 73.4587 838.307 78.408C835.32 83.3573 831.267 87.2827 826.147 90.184C821.027 93 815.224 94.408 808.739 94.408ZM808.739 76.616C811.555 76.616 814.03 76.0187 816.163 74.824C818.296 73.544 819.918 71.7947 821.027 69.576C822.222 67.272 822.819 64.6693 822.819 61.768C822.819 58.8667 822.222 56.3493 821.027 54.216C819.832 51.9973 818.168 50.2907 816.035 49.096C813.987 47.816 811.555 47.176 808.739 47.176C806.008 47.176 803.576 47.816 801.443 49.096C799.31 50.2907 797.646 51.9973 796.451 54.216C795.256 56.4347 794.659 58.9947 794.659 61.896C794.659 64.712 795.256 67.272 796.451 69.576C797.646 71.7947 799.31 73.544 801.443 74.824C803.576 76.0187 806.008 76.616 808.739 76.616ZM852.537 93V30.792H872.121V93H852.537ZM872.121 58.824L863.929 52.424C865.55 45.1707 868.281 39.5387 872.121 35.528C875.961 31.5173 881.294 29.512 888.121 29.512C891.108 29.512 893.71 29.9813 895.929 30.92C898.233 31.7733 900.238 33.1387 901.945 35.016L890.297 49.736C889.444 48.7973 888.377 48.072 887.097 47.56C885.817 47.048 884.366 46.792 882.745 46.792C879.502 46.792 876.9 47.816 874.937 49.864C873.06 51.8267 872.121 54.8133 872.121 58.824ZM946.97 93L925.21 60.744L946.842 30.792H968.73L942.618 64.456L943.258 56.392L970.01 93H946.97ZM907.162 93V0.0719986H926.746V93H907.162ZM996.068 94.536C992.399 94.536 988.772 94.0667 985.188 93.128C981.689 92.1893 978.404 90.8667 975.332 89.16C972.345 87.368 969.785 85.32 967.652 83.016L978.788 71.752C980.836 73.9707 983.268 75.72 986.084 77C988.9 78.1947 991.972 78.792 995.3 78.792C997.604 78.792 999.353 78.4507 1000.55 77.768C1001.83 77.0853 1002.47 76.1467 1002.47 74.952C1002.47 73.416 1001.7 72.264 1000.16 71.496C998.713 70.6427 996.836 69.9173 994.532 69.32C992.228 68.6373 989.796 67.912 987.236 67.144C984.676 66.376 982.244 65.3093 979.94 63.944C977.636 62.5787 975.759 60.7013 974.308 58.312C972.857 55.8373 972.132 52.7227 972.132 48.968C972.132 44.9573 973.156 41.5013 975.204 38.6C977.252 35.6133 980.153 33.2667 983.908 31.56C987.663 29.8533 992.057 29 997.092 29C1002.38 29 1007.25 29.9387 1011.68 31.816C1016.21 33.608 1019.88 36.296 1022.69 39.88L1011.56 51.144C1009.59 48.84 1007.37 47.2187 1004.9 46.28C1002.51 45.3413 1000.16 44.872 997.86 44.872C995.641 44.872 993.977 45.2133 992.868 45.896C991.759 46.4933 991.204 47.3893 991.204 48.584C991.204 49.864 991.929 50.888 993.38 51.656C994.831 52.424 996.708 53.1067 999.012 53.704C1001.32 54.3013 1003.75 55.0267 1006.31 55.88C1008.87 56.7333 1011.3 57.8853 1013.6 59.336C1015.91 60.7867 1017.79 62.7493 1019.24 65.224C1020.69 67.6133 1021.41 70.7707 1021.41 74.696C1021.41 80.7547 1019.11 85.576 1014.5 89.16C1009.98 92.744 1003.83 94.536 996.068 94.536Z"/>
</mask>
<path d="M0.704 93H-0.296V94H0.704V93ZM0.704 2.632V1.632H-0.296V2.632H0.704ZM20.8 2.632H21.8V1.632H20.8V2.632ZM20.8 93V94H21.8V93H20.8ZM56.64 93H55.64V94H56.64V93ZM56.64 2.632V1.632H55.64V2.632H56.64ZM76.864 2.632H77.864V1.632H76.864V2.632ZM76.864 93V94H77.864V93H76.864ZM12.736 55.24H11.736V56.24H12.736V55.24ZM12.736 37.832V36.832H11.736V37.832H12.736ZM63.296 37.832H64.296V36.832H63.296V37.832ZM63.296 55.24V56.24H64.296V55.24H63.296ZM1.704 93V2.632H-0.296V93H1.704ZM0.704 3.632H20.8V1.632H0.704V3.632ZM19.8 2.632V93H21.8V2.632H19.8ZM20.8 92H0.704V94H20.8V92ZM57.64 93V2.632H55.64V93H57.64ZM56.64 3.632H76.864V1.632H56.64V3.632ZM75.864 2.632V93H77.864V2.632H75.864ZM76.864 92H56.64V94H76.864V92ZM13.736 55.24V37.832H11.736V55.24H13.736ZM12.736 38.832H63.296V36.832H12.736V38.832ZM62.296 37.832V55.24H64.296V37.832H62.296ZM63.296 54.24H12.736V56.24H63.296V54.24ZM104.956 90.184L104.463 91.054L104.472 91.0589L104.48 91.0635L104.956 90.184ZM92.796 78.408L93.6522 77.8913L93.6522 77.8913L92.796 78.408ZM92.796 45.256L91.9438 44.7327L91.9438 44.7327L92.796 45.256ZM104.956 33.736L105.438 34.6123L105.449 34.606L104.956 33.736ZM151.932 45.256L151.076 45.7727L151.08 45.7793L151.932 45.256ZM151.932 78.408L152.788 78.9247L152.788 78.9247L151.932 78.408ZM139.772 90.184L140.254 91.0603L140.265 91.054L139.772 90.184ZM129.788 74.824L130.277 75.6965L130.29 75.6892L130.302 75.6815L129.788 74.824ZM134.652 69.576L133.764 69.1157L133.761 69.1222L133.758 69.1288L134.652 69.576ZM134.652 54.216L133.772 54.6901L133.775 54.6974L133.779 54.7046L134.652 54.216ZM129.66 49.096L129.13 49.944L129.15 49.9567L129.171 49.9685L129.66 49.096ZM115.068 49.096L115.557 49.9685L115.57 49.9612L115.582 49.9535L115.068 49.096ZM110.076 54.216L110.956 54.6901L110.956 54.6901L110.076 54.216ZM110.076 69.576L109.188 70.0363L109.192 70.0432L109.196 70.0501L110.076 69.576ZM115.068 74.824L114.554 75.6815L114.566 75.6892L114.579 75.6965L115.068 74.824ZM122.364 93.408C116.116 93.408 110.479 92.035 105.432 89.3045L104.48 91.0635C109.843 93.965 115.812 95.408 122.364 95.408V93.408ZM105.449 89.314C100.476 86.4957 96.5485 82.6909 93.6522 77.8913L91.9398 78.9247C95.0169 84.0238 99.1964 88.0696 104.463 91.054L105.449 89.314ZM93.6522 77.8913C90.7656 73.1078 89.316 67.7418 89.316 61.768H87.316C87.316 68.0822 88.8531 73.8095 91.9398 78.9247L93.6522 77.8913ZM89.316 61.768C89.316 55.7941 90.7656 50.4738 93.6482 45.7793L91.9438 44.7327C88.8531 49.7662 87.316 55.4539 87.316 61.768H89.316ZM93.6482 45.7793C96.5419 41.0666 100.466 37.3467 105.438 34.6122L104.474 32.8598C99.2059 35.7573 95.0235 39.7173 91.9438 44.7327L93.6482 45.7793ZM105.449 34.606C110.404 31.7984 116.033 30.384 122.364 30.384V28.384C115.724 28.384 109.748 29.871 104.463 32.866L105.449 34.606ZM122.364 30.384C128.7 30.384 134.333 31.7581 139.29 34.4842L140.254 32.7318C134.971 29.8259 128.999 28.384 122.364 28.384V30.384ZM139.29 34.4842C144.258 37.2164 148.181 40.9757 151.076 45.7727L152.788 44.7393C149.71 39.6376 145.526 35.6316 140.254 32.7318L139.29 34.4842ZM151.08 45.7793C153.962 50.4738 155.412 55.7941 155.412 61.768H157.412C157.412 55.4539 155.875 49.7662 152.784 44.7327L151.08 45.7793ZM155.412 61.768C155.412 67.7418 153.962 73.1078 151.076 77.8913L152.788 78.9247C155.875 73.8095 157.412 68.0822 157.412 61.768H155.412ZM151.076 77.8913C148.18 82.6909 144.252 86.4957 139.279 89.314L140.265 91.054C145.532 88.0696 149.711 84.0238 152.788 78.9247L151.076 77.8913ZM139.29 89.3078C134.333 92.0339 128.7 93.408 122.364 93.408V95.408C128.999 95.408 134.971 93.9661 140.254 91.0602L139.29 89.3078ZM122.364 77.616C125.325 77.616 127.973 76.9867 130.277 75.6965L129.299 73.9515C127.337 75.0506 125.035 75.616 122.364 75.616V77.616ZM130.302 75.6815C132.598 74.304 134.352 72.4125 135.546 70.0232L133.758 69.1288C132.734 71.1768 131.244 72.784 129.274 73.9665L130.302 75.6815ZM135.54 70.0363C136.817 67.574 137.444 64.8104 137.444 61.768H135.444C135.444 64.5283 134.877 66.97 133.764 69.1157L135.54 70.0363ZM137.444 61.768C137.444 58.7276 136.817 56.0356 135.525 53.7274L133.779 54.7046C134.876 56.663 135.444 59.0058 135.444 61.768H137.444ZM135.532 53.7419C134.251 51.3613 132.453 49.514 130.149 48.2235L129.171 49.9685C131.134 51.0674 132.664 52.6334 133.772 54.6901L135.532 53.7419ZM130.19 48.248C127.958 46.8531 125.336 46.176 122.364 46.176V48.176C125.024 48.176 127.266 48.7789 129.13 49.944L130.19 48.248ZM122.364 46.176C119.47 46.176 116.857 46.8563 114.554 48.2385L115.582 49.9535C117.545 48.7757 119.796 48.176 122.364 48.176V46.176ZM114.579 48.2235C112.275 49.514 110.477 51.3613 109.196 53.7419L110.956 54.6901C112.064 52.6334 113.594 51.0674 115.557 49.9685L114.579 48.2235ZM109.196 53.7419C107.911 56.127 107.284 58.8544 107.284 61.896H109.284C109.284 59.1349 109.851 56.7423 110.956 54.6901L109.196 53.7419ZM107.284 61.896C107.284 64.8583 107.914 67.5782 109.188 70.0363L110.964 69.1157C109.849 66.9658 109.284 64.5657 109.284 61.896H107.284ZM109.196 70.0501C110.474 72.425 112.264 74.3077 114.554 75.6815L115.582 73.9665C113.605 72.7803 112.067 71.1643 110.956 69.1019L109.196 70.0501ZM114.579 75.6965C116.879 76.9842 119.483 77.616 122.364 77.616V75.616C119.784 75.616 117.524 75.0531 115.557 73.9515L114.579 75.6965ZM180.144 93L179.199 93.3267L179.432 94H180.144V93ZM158.64 30.792V29.792H157.236L157.695 31.1187L158.64 30.792ZM177.84 30.792L178.799 30.5094L178.588 29.792H177.84V30.792ZM191.152 75.976L191.175 76.9757L192.48 76.9461L192.111 75.6934L191.152 75.976ZM185.52 76.104L184.569 75.795L184.133 77.1358L185.543 77.1037L185.52 76.104ZM200.24 30.792V29.792H199.513L199.289 30.483L200.24 30.792ZM216.112 30.792L217.062 30.4806L216.837 29.792H216.112V30.792ZM230.96 76.104L230.938 77.1038L232.35 77.1351L231.91 75.7926L230.96 76.104ZM225.2 75.976L224.242 75.6909L223.868 76.9466L225.178 76.9758L225.2 75.976ZM238.64 30.792V29.792H237.894L237.682 30.5069L238.64 30.792ZM257.84 30.792L258.785 31.1187L259.244 29.792H257.84V30.792ZM236.336 93V94H237.048L237.281 93.3267L236.336 93ZM220.336 93L219.388 93.3188L219.617 94H220.336V93ZM205.872 49.992V48.992H204.481L204.924 50.3108L205.872 49.992ZM210.736 49.992L211.682 50.3158L212.135 48.992H210.736V49.992ZM196.016 93V94H196.731L196.962 93.3238L196.016 93ZM181.089 92.6733L159.585 30.4653L157.695 31.1187L179.199 93.3267L181.089 92.6733ZM158.64 31.792H177.84V29.792H158.64V31.792ZM176.881 31.0746L190.193 76.2586L192.111 75.6934L178.799 30.5094L176.881 31.0746ZM191.129 74.9763L185.497 75.1043L185.543 77.1037L191.175 76.9757L191.129 74.9763ZM186.471 76.413L201.191 31.101L199.289 30.483L184.569 75.795L186.471 76.413ZM200.24 31.792H216.112V29.792H200.24V31.792ZM215.162 31.1034L230.01 76.4154L231.91 75.7926L217.062 30.4806L215.162 31.1034ZM230.982 75.1042L225.222 74.9762L225.178 76.9758L230.938 77.1038L230.982 75.1042ZM226.159 76.2611L239.599 31.0771L237.682 30.5069L224.242 75.6909L226.159 76.2611ZM238.64 31.792H257.84V29.792H238.64V31.792ZM256.895 30.4653L235.391 92.6733L237.281 93.3267L258.785 31.1187L256.895 30.4653ZM236.336 92H220.336V94H236.336V92ZM221.284 92.6812L206.82 49.6732L204.924 50.3108L219.388 93.3188L221.284 92.6812ZM205.872 50.992H210.736V48.992H205.872V50.992ZM209.79 49.6682L195.07 92.6762L196.962 93.3238L211.682 50.3158L209.79 49.6682ZM196.016 92H180.144V94H196.016V92ZM306.939 93H305.939V94H306.939V93ZM306.939 77.384V76.384H305.939V77.384H306.939ZM337.403 73.928L338.123 74.6216L338.123 74.6216L337.403 73.928ZM334.843 55.112L334.347 55.9802L334.355 55.9852L334.364 55.9899L334.843 55.112ZM306.939 53.576H305.939V54.576H306.939V53.576ZM306.939 38.344V37.344H305.939V38.344H306.939ZM334.587 35.912L335.208 36.696L335.218 36.6883L335.227 36.6802L334.587 35.912ZM334.587 20.808L333.947 21.5762L333.956 21.5843L333.966 21.592L334.587 20.808ZM306.939 18.248H305.939V19.248H306.939V18.248ZM306.939 2.632V1.632H305.939V2.632H306.939ZM345.083 5.83199L344.613 6.7149L344.621 6.71891L345.083 5.83199ZM354.427 14.408L353.568 14.9195L353.568 14.9195L354.427 14.408ZM352.251 40.392L352.982 41.0743L352.982 41.0743L352.251 40.392ZM336.379 48.328L335.382 48.2527L335.282 49.5767L336.582 49.3072L336.379 48.328ZM336.891 41.544L337.079 40.5618L335.978 40.3516L335.894 41.4687L336.891 41.544ZM354.427 50.376L353.692 51.0543L353.699 51.0618L354.427 50.376ZM356.987 80.2L356.136 79.6749L356.133 79.6801L356.987 80.2ZM346.491 89.544L346.044 88.6495L346.037 88.653L346.491 89.544ZM291.579 93H290.579V94H291.579V93ZM291.579 2.632V1.632H290.579V2.632H291.579ZM311.419 2.632H312.419V1.632H311.419V2.632ZM311.419 93V94H312.419V93H311.419ZM307.939 93V77.384H305.939V93H307.939ZM306.939 78.384H328.187V76.384H306.939V78.384ZM328.187 78.384C332.318 78.384 335.675 77.1643 338.123 74.6216L336.683 73.2344C334.694 75.2997 331.907 76.384 328.187 76.384V78.384ZM338.123 74.6216C340.529 72.1231 341.731 69.0551 341.731 65.48H339.731C339.731 68.5609 338.714 71.1249 336.683 73.2344L338.123 74.6216ZM341.731 65.48C341.731 63.0227 341.183 60.8 340.063 58.8399L338.327 59.8321C339.255 61.456 339.731 63.3293 339.731 65.48H341.731ZM340.063 58.8399C338.944 56.881 337.356 55.3435 335.322 54.2341L334.364 55.9899C336.085 56.9285 337.398 58.207 338.327 59.8321L340.063 58.8399ZM335.339 54.2438C333.359 53.1124 330.958 52.576 328.187 52.576V54.576C330.706 54.576 332.743 55.0636 334.347 55.9802L335.339 54.2438ZM328.187 52.576H306.939V54.576H328.187V52.576ZM307.939 53.576V38.344H305.939V53.576H307.939ZM306.939 39.344H326.523V37.344H306.939V39.344ZM326.523 39.344C330.014 39.344 332.939 38.4917 335.208 36.696L333.966 35.128C332.139 36.5749 329.688 37.344 326.523 37.344V39.344ZM335.227 36.6802C337.564 34.7327 338.659 31.8523 338.659 28.232H336.659C336.659 31.4384 335.706 33.678 333.947 35.1438L335.227 36.6802ZM338.659 28.232C338.659 24.6898 337.559 21.8852 335.208 20.024L333.966 21.592C335.711 22.9734 336.659 25.1182 336.659 28.232H338.659ZM335.227 20.0398C332.958 18.1491 330.025 17.248 326.523 17.248V19.248C329.677 19.248 332.12 20.0536 333.947 21.5762L335.227 20.0398ZM326.523 17.248H306.939V19.248H326.523V17.248ZM307.939 18.248V2.632H305.939V18.248H307.939ZM306.939 3.632H330.363V1.632H306.939V3.632ZM330.363 3.632C336.046 3.632 340.782 4.67684 344.613 6.71487L345.553 4.94912C341.363 2.72048 336.285 1.632 330.363 1.632V3.632ZM344.621 6.71891C348.571 8.77593 351.539 11.5119 353.568 14.9195L355.286 13.8965C353.048 10.1361 349.787 7.15473 345.545 4.94508L344.621 6.71891ZM353.568 14.9195C355.605 18.3419 356.627 22.1319 356.627 26.312H358.627C358.627 21.7881 357.516 17.6421 355.286 13.8965L353.568 14.9195ZM356.627 26.312C356.627 31.621 354.921 36.0659 351.52 39.7097L352.982 41.0743C356.749 37.0381 358.627 32.0964 358.627 26.312H356.627ZM351.52 39.7097C348.12 43.3527 343.042 45.9253 336.176 47.3488L336.582 49.3072C343.71 47.8294 349.214 45.1113 352.982 41.0743L351.52 39.7097ZM337.376 48.4033L337.888 41.6193L335.894 41.4687L335.382 48.2527L337.376 48.4033ZM336.703 42.5262C344.147 43.9481 349.778 46.8134 353.692 51.0543L355.162 49.6977C350.884 45.0639 344.824 42.0413 337.079 40.5618L336.703 42.5262ZM353.699 51.0618C357.694 55.301 359.699 60.5118 359.699 66.76H361.699C361.699 60.0376 359.523 54.3257 355.155 49.6902L353.699 51.0618ZM359.699 66.76C359.699 71.5336 358.508 75.8302 356.136 79.6749L357.838 80.7251C360.415 76.5485 361.699 71.885 361.699 66.76H359.699ZM356.133 79.6801C353.853 83.4259 350.505 86.4192 346.044 88.6496L346.938 90.4384C351.693 88.0608 355.343 84.8248 357.841 80.7199L356.133 79.6801ZM346.037 88.653C341.687 90.8691 336.389 92 330.107 92V94C336.625 94 342.25 92.8269 346.945 90.435L346.037 88.653ZM330.107 92H306.939V94H330.107V92ZM292.579 93V2.632H290.579V93H292.579ZM291.579 3.632H311.419V1.632H291.579V3.632ZM310.419 2.632V93H312.419V2.632H310.419ZM311.419 92H291.579V94H311.419V92ZM384.203 90.952L383.722 91.8286L383.732 91.8342L383.742 91.8395L384.203 90.952ZM373.963 81.224L373.102 81.7333L373.107 81.7411L373.963 81.224ZM370.251 30.792V29.792H369.251V30.792H370.251ZM389.835 30.792H390.835V29.792H389.835V30.792ZM390.859 72.136L389.945 72.5421L389.954 72.5629L389.965 72.5832L390.859 72.136ZM394.187 75.72L394.694 74.8581L394.694 74.8581L394.187 75.72ZM406.347 74.312L407.071 75.0017L407.079 74.9933L407.087 74.9847L406.347 74.312ZM408.907 30.792V29.792H407.907V30.792H408.907ZM428.491 30.792H429.491V29.792H428.491V30.792ZM424.779 81.224L425.635 81.7411L425.64 81.7333L424.779 81.224ZM414.539 90.952L415.007 91.8358L415.014 91.8322L415.02 91.8286L414.539 90.952ZM399.435 93.408C393.855 93.408 388.94 92.2846 384.664 90.0645L383.742 91.8395C388.341 94.2274 393.58 95.408 399.435 95.408V93.408ZM384.684 90.0754C380.481 87.7675 377.199 84.6464 374.819 80.7069L373.107 81.7411C375.676 85.9936 379.221 89.3578 383.722 91.8286L384.684 90.0754ZM374.824 80.7147C372.45 76.7036 371.251 72.1044 371.251 66.888H369.251C369.251 72.4236 370.527 77.3817 373.102 81.7333L374.824 80.7147ZM371.251 66.888V30.792H369.251V66.888H371.251ZM370.251 31.792H389.835V29.792H370.251V31.792ZM388.835 30.792V66.632H390.835V30.792H388.835ZM388.835 66.632C388.835 68.8689 389.193 70.8488 389.945 72.5421L391.773 71.7299C391.16 70.3512 390.835 68.6617 390.835 66.632H388.835ZM389.965 72.5832C390.817 74.2882 392.059 75.6286 393.68 76.5819L394.694 74.8581C393.413 74.1047 392.437 73.0558 391.753 71.6888L389.965 72.5832ZM393.68 76.5819C395.314 77.5434 397.247 78 399.435 78V76C397.527 76 395.961 75.6033 394.694 74.8581L393.68 76.5819ZM399.435 78C402.559 78 405.143 77.0261 407.071 75.0017L405.623 73.6223C404.138 75.1819 402.114 76 399.435 76V78ZM407.087 74.9847C409.004 72.8764 409.907 70.0519 409.907 66.632H407.907C407.907 69.6974 407.104 71.9929 405.607 73.6393L407.087 74.9847ZM409.907 66.632V30.792H407.907V66.632H409.907ZM408.907 31.792H428.491V29.792H408.907V31.792ZM427.491 30.792V66.76H429.491V30.792H427.491ZM427.491 66.76C427.491 72.0649 426.291 76.706 423.918 80.7147L425.64 81.7333C428.216 77.3793 429.491 72.3778 429.491 66.76H427.491ZM423.923 80.7069C421.543 84.6464 418.261 87.7675 414.058 90.0754L415.02 91.8286C419.521 89.3578 423.066 85.9936 425.635 81.7411L423.923 80.7069ZM414.071 90.0682C409.885 92.2844 405.016 93.408 399.435 93.408V95.408C405.289 95.408 410.489 94.2276 415.007 91.8358L414.071 90.0682ZM451.539 90.056L451.01 90.9049L451.018 90.9093L451.539 90.056ZM440.787 78.536L439.902 79.0018L439.909 79.0138L440.787 78.536ZM440.787 45.256L439.908 44.7782L439.902 44.7903L440.787 45.256ZM451.539 33.736L451.018 32.8827L451.01 32.8871L451.539 33.736ZM478.803 31.944L478.374 32.8473L478.383 32.8513L478.803 31.944ZM487.379 38.728L486.585 39.3354L486.595 39.3485L486.605 39.3612L487.379 38.728ZM491.219 48.456H492.219V48.4212L492.217 48.3864L491.219 48.456ZM491.219 74.696L492.217 74.7656L492.219 74.7308V74.696H491.219ZM487.507 84.68L488.301 85.2875L488.31 85.2763L487.507 84.68ZM478.931 91.72L479.369 92.6188L479.378 92.6145L479.387 92.61L478.931 91.72ZM478.035 74.824L478.539 75.6878L478.552 75.6801L478.565 75.672L478.035 74.824ZM482.899 69.576L482.019 69.1019L482.019 69.1019L482.899 69.576ZM482.899 54.344L482.005 54.7912L482.015 54.8122L482.026 54.8326L482.899 54.344ZM478.035 49.096L477.505 49.944L477.513 49.9488L477.521 49.9535L478.035 49.096ZM463.571 49.096L463.057 48.2385L463.049 48.2432L463.041 48.248L463.571 49.096ZM458.579 54.344L457.713 53.8443L457.705 53.857L457.699 53.8699L458.579 54.344ZM458.579 69.448L457.699 69.9221L457.699 69.9221L458.579 69.448ZM503.123 93V94H504.123V93H503.123ZM483.923 93H482.923V94H483.923V93ZM483.923 76.232L482.941 76.0407L482.923 76.1354V76.232H483.923ZM486.867 61.128L487.849 61.3193L487.888 61.1156L487.844 60.9128L486.867 61.128ZM483.539 46.024H482.539V46.1329L482.562 46.2392L483.539 46.024ZM483.539 0.0719986V-0.928001H482.539V0.0719986H483.539ZM503.123 0.0719986H504.123V-0.928001H503.123V0.0719986ZM467.283 93.28C461.562 93.28 456.497 91.9142 452.06 89.2027L451.018 90.9093C455.797 93.8298 461.228 95.28 467.283 95.28V93.28ZM452.068 89.2071C447.698 86.4861 444.232 82.7766 441.665 78.0582L439.909 79.0138C442.633 84.0234 446.335 87.9939 451.01 90.9049L452.068 89.2071ZM441.672 78.0703C439.197 73.368 437.947 67.9849 437.947 61.896H435.947C435.947 68.2658 437.257 73.976 439.902 79.0017L441.672 78.0703ZM437.947 61.896C437.947 55.8071 439.197 50.424 441.672 45.7217L439.902 44.7903C437.257 49.816 435.947 55.5262 435.947 61.896H437.947ZM441.665 45.7338C444.232 41.0154 447.698 37.3059 452.068 34.5849L451.01 32.8871C446.335 35.7981 442.633 39.7686 439.909 44.7782L441.665 45.7338ZM452.06 34.5893C456.497 31.8778 461.562 30.512 467.283 30.512V28.512C461.228 28.512 455.797 29.9622 451.018 32.8827L452.06 34.5893ZM467.283 30.512C471.42 30.512 475.111 31.2974 478.374 32.8473L479.232 31.0407C475.668 29.3479 471.679 28.512 467.283 28.512V30.512ZM478.383 32.8513C481.743 34.4084 484.47 36.5701 486.585 39.3354L488.173 38.1205C485.851 35.0832 482.861 32.7223 479.223 31.0367L478.383 32.8513ZM486.605 39.3612C488.776 42.0152 489.98 45.0603 490.221 48.5256L492.217 48.3864C491.946 44.513 490.59 41.0728 488.153 38.0948L486.605 39.3612ZM490.219 48.456V74.696H492.219V48.456H490.219ZM490.221 74.6264C489.979 78.1028 488.81 81.2485 486.704 84.0837L488.31 85.2763C490.641 82.1382 491.947 78.6278 492.217 74.7656L490.221 74.6264ZM486.713 84.0725C484.591 86.8468 481.852 89.1005 478.475 90.83L479.387 92.61C483.008 90.7555 485.986 88.3158 488.301 85.2874L486.713 84.0725ZM478.493 90.8212C475.143 92.4551 471.413 93.28 467.283 93.28V95.28C471.687 95.28 475.721 94.3982 479.369 92.6188L478.493 90.8212ZM470.739 77.616C473.699 77.616 476.311 76.9871 478.539 75.6878L477.531 73.9602C475.663 75.0502 473.411 75.616 470.739 75.616V77.616ZM478.565 75.672C480.767 74.2959 482.506 72.4148 483.779 70.0501L482.019 69.1019C480.903 71.1745 479.399 72.7921 477.505 73.976L478.565 75.672ZM483.779 70.0501C485.064 67.665 485.691 64.9376 485.691 61.896H483.691C483.691 64.6571 483.124 67.0497 482.019 69.1019L483.779 70.0501ZM485.691 61.896C485.691 58.8556 485.064 56.1636 483.772 53.8554L482.026 54.8326C483.123 56.791 483.691 59.1338 483.691 61.896H485.691ZM483.793 53.8968C482.599 51.5075 480.845 49.616 478.55 48.2385L477.521 49.9535C479.491 51.1359 480.981 52.7432 482.005 54.7912L483.793 53.8968ZM478.565 48.248C476.338 46.8561 473.76 46.176 470.867 46.176V48.176C473.435 48.176 475.636 48.7759 477.505 49.944L478.565 48.248ZM470.867 46.176C467.973 46.176 465.36 46.8563 463.057 48.2385L464.085 49.9535C466.048 48.7757 468.299 48.176 470.867 48.176V46.176ZM463.041 48.248C460.846 49.6201 459.07 51.4926 457.713 53.8443L459.445 54.8437C460.648 52.7581 462.2 51.1319 464.101 49.944L463.041 48.248ZM457.699 53.8699C456.417 56.2507 455.787 58.9343 455.787 61.896H457.787C457.787 59.2257 458.352 56.8746 459.459 54.8181L457.699 53.8699ZM455.787 61.896C455.787 64.8577 456.417 67.5413 457.699 69.9221L459.459 68.9739C458.352 66.9174 457.787 64.5663 457.787 61.896H455.787ZM457.699 69.9221C458.977 72.297 460.767 74.1797 463.057 75.5535L464.085 73.8385C462.108 72.6523 460.57 71.0363 459.459 68.9739L457.699 69.9221ZM463.057 75.5535C465.355 76.9327 467.924 77.616 470.739 77.616V75.616C468.263 75.616 466.053 75.0193 464.085 73.8385L463.057 75.5535ZM503.123 92H483.923V94H503.123V92ZM484.923 93V76.232H482.923V93H484.923ZM484.905 76.4233L487.849 61.3193L485.885 60.9367L482.941 76.0407L484.905 76.4233ZM487.844 60.9128L484.516 45.8088L482.562 46.2392L485.89 61.3432L487.844 60.9128ZM484.539 46.024V0.0719986H482.539V46.024H484.539ZM483.539 1.072H503.123V-0.928001H483.539V1.072ZM502.123 0.0719986V93H504.123V0.0719986H502.123ZM528.688 93.128L528.429 94.0939L528.435 94.0954L528.688 93.128ZM518.832 89.16L518.318 90.0175L518.332 90.0261L518.346 90.0342L518.832 89.16ZM511.152 83.016L510.441 82.3129L509.768 82.9934L510.418 83.6954L511.152 83.016ZM522.288 71.752L523.023 71.0737L522.313 70.3045L521.577 71.0489L522.288 71.752ZM529.584 77L529.17 77.9104L529.182 77.9156L529.193 77.9206L529.584 77ZM544.048 77.768L543.577 76.8856L543.565 76.8925L543.552 76.8998L544.048 77.768ZM543.664 71.496L543.157 72.3579L543.186 72.3752L543.217 72.3904L543.664 71.496ZM538.032 69.32L537.748 70.2788L537.764 70.2837L537.781 70.288L538.032 69.32ZM523.44 63.944L523.95 63.0837L523.95 63.0837L523.44 63.944ZM517.808 58.312L516.945 58.8177L516.949 58.8244L516.953 58.831L517.808 58.312ZM518.704 38.6L519.521 39.1767L519.529 39.1655L518.704 38.6ZM527.408 31.56L526.994 30.6496L526.994 30.6496L527.408 31.56ZM555.184 31.816L554.794 32.737L554.805 32.7414L554.816 32.7457L555.184 31.816ZM566.192 39.88L566.903 40.5831L567.523 39.9558L566.978 39.2622L566.192 39.88ZM555.056 51.144L554.295 51.7925L555.001 52.6218L555.767 51.8471L555.056 51.144ZM548.4 46.28L548.034 47.2108L548.045 47.215L548.4 46.28ZM536.368 45.896L536.842 46.7765L536.868 46.7628L536.892 46.7477L536.368 45.896ZM542.512 53.704L542.261 54.672L542.261 54.672L542.512 53.704ZM549.808 55.88L550.124 54.9313L550.124 54.9313L549.808 55.88ZM557.104 59.336L557.637 58.4898L557.637 58.4898L557.104 59.336ZM562.736 65.224L561.873 65.7297L561.877 65.7364L561.881 65.743L562.736 65.224ZM558 89.16L557.386 88.3706L557.379 88.3763L558 89.16ZM539.568 93.536C535.985 93.536 532.443 93.0778 528.941 92.1606L528.435 94.0954C532.101 95.0555 535.812 95.536 539.568 95.536V93.536ZM528.947 92.1622C525.525 91.244 522.316 89.9516 519.318 88.2858L518.346 90.0342C521.492 91.7817 524.854 93.1346 528.429 94.0938L528.947 92.1622ZM519.346 88.3025C516.432 86.5539 513.948 84.564 511.886 82.3366L510.418 83.6954C512.622 86.076 515.258 88.1821 518.318 90.0175L519.346 88.3025ZM511.863 83.7191L522.999 72.4551L521.577 71.0489L510.441 82.3129L511.863 83.7191ZM521.553 72.4303C523.694 74.7494 526.236 76.5766 529.17 77.9104L529.998 76.0896C527.3 74.8634 524.978 73.192 523.023 71.0737L521.553 72.4303ZM529.193 77.9206C532.143 79.1721 535.35 79.792 538.8 79.792V77.792C535.594 77.792 532.657 77.2172 529.975 76.0794L529.193 77.9206ZM538.8 79.792C541.174 79.792 543.128 79.4452 544.544 78.6362L543.552 76.8998C542.578 77.4561 541.034 77.792 538.8 77.792V79.792ZM544.519 78.6504C546.041 77.8384 546.968 76.6018 546.968 74.952H544.968C544.968 75.6916 544.615 76.3323 543.577 76.8856L544.519 78.6504ZM546.968 74.952C546.968 74.009 546.729 73.1393 546.224 72.3813C545.723 71.6296 544.998 71.0449 544.111 70.6016L543.217 72.3904C543.866 72.7151 544.293 73.0904 544.56 73.4907C544.823 73.8847 544.968 74.359 544.968 74.952H546.968ZM544.171 70.6341C542.615 69.7187 540.643 68.9638 538.283 68.352L537.781 70.288C540.029 70.8708 541.812 71.5666 543.157 72.3579L544.171 70.6341ZM538.316 68.3612C536.013 67.6789 533.582 66.9539 531.023 66.1862L530.449 68.1018C533.01 68.8701 535.443 69.5958 537.748 70.2788L538.316 68.3612ZM531.023 66.1862C528.541 65.4416 526.184 64.4077 523.95 63.0837L522.93 64.8043C525.304 66.211 527.811 67.3104 530.449 68.1018L531.023 66.1862ZM523.95 63.0837C521.793 61.8058 520.032 60.0483 518.663 57.793L516.953 58.831C518.485 61.3543 520.479 63.3515 522.93 64.8043L523.95 63.0837ZM518.671 57.8063C517.334 55.5254 516.632 52.5984 516.632 48.968H514.632C514.632 52.8469 515.381 56.1493 516.945 58.8177L518.671 57.8063ZM516.632 48.968C516.632 45.1361 517.607 41.8879 519.521 39.1767L517.887 38.0233C515.705 41.1147 514.632 44.7786 514.632 48.968H516.632ZM519.529 39.1655C521.46 36.3491 524.209 34.1123 527.822 32.4704L526.994 30.6496C523.097 32.421 520.044 34.8776 517.879 38.0345L519.529 39.1655ZM527.822 32.4704C531.421 30.8343 535.669 30 540.592 30V28C535.445 28 530.904 28.8723 526.994 30.6496L527.822 32.4704ZM540.592 30C545.762 30 550.492 30.9167 554.794 32.737L555.574 30.895C551.001 28.9606 546.003 28 540.592 28V30ZM554.816 32.7457C559.185 34.4771 562.706 37.0623 565.406 40.4978L566.978 39.2622C564.046 35.5297 560.228 32.7389 555.552 30.8863L554.816 32.7457ZM565.481 39.1769L554.345 50.4409L555.767 51.8471L566.903 40.5831L565.481 39.1769ZM555.817 50.4955C553.761 48.0819 551.408 46.3515 548.755 45.345L548.045 47.215C550.341 48.0858 552.425 49.5981 554.295 51.7925L555.817 50.4955ZM548.766 45.3492C546.273 44.37 543.803 43.872 541.36 43.872V45.872C543.525 45.872 545.748 46.3126 548.034 47.2108L548.766 45.3492ZM541.36 43.872C539.071 43.872 537.186 44.2183 535.844 45.0443L536.892 46.7477C537.768 46.2084 539.211 45.872 541.36 45.872V43.872ZM535.894 45.0155C535.215 45.381 534.656 45.866 534.27 46.4896C533.882 47.1161 533.704 47.8262 533.704 48.584H535.704C535.704 48.1471 535.803 47.8119 535.97 47.5424C536.139 47.27 536.411 47.0084 536.842 46.7765L535.894 45.0155ZM533.704 48.584C533.704 50.3429 534.743 51.6559 536.412 52.5398L537.348 50.7722C536.116 50.1201 535.704 49.3851 535.704 48.584H533.704ZM536.412 52.5398C537.955 53.3565 539.912 54.063 542.261 54.672L542.763 52.736C540.504 52.1503 538.707 51.4915 537.348 50.7722L536.412 52.5398ZM542.261 54.672C544.54 55.2629 546.951 55.9816 549.492 56.8287L550.124 54.9313C547.545 54.0717 545.092 53.3397 542.763 52.736L542.261 54.672ZM549.492 56.8287C551.975 57.6564 554.334 58.7739 556.571 60.1822L557.637 58.4898C555.266 56.9968 552.761 55.8102 550.124 54.9313L549.492 56.8287ZM556.571 60.1822C558.732 61.5429 560.499 63.3857 561.873 65.7297L563.599 64.7183C562.071 62.1129 560.084 60.0304 557.637 58.4898L556.571 60.1822ZM561.881 65.743C563.206 67.9249 563.912 70.8831 563.912 74.696H565.912C565.912 70.6582 565.167 67.3017 563.591 64.705L561.881 65.743ZM563.912 74.696C563.912 80.4597 561.74 84.9843 557.386 88.3706L558.614 89.9494C563.476 86.1677 565.912 81.0496 565.912 74.696H563.912ZM557.379 88.3763C553.086 91.7786 547.186 93.536 539.568 93.536V95.536C547.481 95.536 553.869 93.7094 558.621 89.9437L557.379 88.3763ZM587.313 93.128L587.054 94.0939L587.06 94.0954L587.313 93.128ZM577.457 89.16L576.943 90.0175L576.957 90.0261L576.971 90.0342L577.457 89.16ZM569.777 83.016L569.066 82.3129L568.393 82.9934L569.043 83.6954L569.777 83.016ZM580.913 71.752L581.648 71.0737L580.938 70.3045L580.202 71.0489L580.913 71.752ZM588.209 77L587.795 77.9104L587.807 77.9156L587.818 77.9206L588.209 77ZM602.673 77.768L602.202 76.8856L602.19 76.8925L602.177 76.8998L602.673 77.768ZM602.289 71.496L601.782 72.3579L601.811 72.3752L601.842 72.3904L602.289 71.496ZM596.657 69.32L596.373 70.2788L596.389 70.2837L596.406 70.288L596.657 69.32ZM582.065 63.944L582.575 63.0837L582.575 63.0837L582.065 63.944ZM576.433 58.312L575.57 58.8177L575.574 58.8244L575.578 58.831L576.433 58.312ZM577.329 38.6L578.146 39.1767L578.154 39.1655L577.329 38.6ZM586.033 31.56L585.619 30.6496L585.619 30.6496L586.033 31.56ZM613.809 31.816L613.419 32.737L613.43 32.7414L613.441 32.7457L613.809 31.816ZM624.817 39.88L625.528 40.5831L626.148 39.9558L625.603 39.2622L624.817 39.88ZM613.681 51.144L612.92 51.7925L613.626 52.6218L614.392 51.8471L613.681 51.144ZM607.025 46.28L606.659 47.2108L606.67 47.215L607.025 46.28ZM594.993 45.896L595.467 46.7765L595.493 46.7628L595.517 46.7477L594.993 45.896ZM601.137 53.704L600.886 54.672L600.886 54.672L601.137 53.704ZM608.433 55.88L608.749 54.9313L608.749 54.9313L608.433 55.88ZM615.729 59.336L616.262 58.4898L616.262 58.4898L615.729 59.336ZM621.361 65.224L620.498 65.7297L620.502 65.7364L620.506 65.743L621.361 65.224ZM616.625 89.16L616.011 88.3706L616.004 88.3763L616.625 89.16ZM598.193 93.536C594.61 93.536 591.068 93.0778 587.566 92.1606L587.06 94.0954C590.726 95.0555 594.437 95.536 598.193 95.536V93.536ZM587.572 92.1622C584.15 91.244 580.941 89.9516 577.943 88.2858L576.971 90.0342C580.117 91.7817 583.479 93.1346 587.054 94.0938L587.572 92.1622ZM577.971 88.3025C575.057 86.5539 572.573 84.564 570.511 82.3366L569.043 83.6954C571.247 86.076 573.883 88.1821 576.943 90.0175L577.971 88.3025ZM570.488 83.7191L581.624 72.4551L580.202 71.0489L569.066 82.3129L570.488 83.7191ZM580.178 72.4303C582.319 74.7494 584.861 76.5766 587.795 77.9104L588.623 76.0896C585.925 74.8634 583.603 73.192 581.648 71.0737L580.178 72.4303ZM587.818 77.9206C590.768 79.1721 593.975 79.792 597.425 79.792V77.792C594.219 77.792 591.282 77.2172 588.6 76.0794L587.818 77.9206ZM597.425 79.792C599.799 79.792 601.753 79.4452 603.169 78.6362L602.177 76.8998C601.203 77.4561 599.659 77.792 597.425 77.792V79.792ZM603.144 78.6504C604.666 77.8384 605.593 76.6018 605.593 74.952H603.593C603.593 75.6916 603.24 76.3323 602.202 76.8856L603.144 78.6504ZM605.593 74.952C605.593 74.009 605.354 73.1393 604.849 72.3813C604.348 71.6296 603.623 71.0449 602.736 70.6016L601.842 72.3904C602.491 72.7151 602.918 73.0904 603.185 73.4907C603.448 73.8847 603.593 74.359 603.593 74.952H605.593ZM602.796 70.6341C601.24 69.7187 599.268 68.9638 596.908 68.352L596.406 70.288C598.654 70.8708 600.437 71.5666 601.782 72.3579L602.796 70.6341ZM596.941 68.3612C594.638 67.6789 592.207 66.9539 589.648 66.1862L589.074 68.1018C591.635 68.8701 594.068 69.5958 596.373 70.2788L596.941 68.3612ZM589.648 66.1862C587.166 65.4416 584.809 64.4077 582.575 63.0837L581.555 64.8043C583.929 66.211 586.436 67.3104 589.074 68.1018L589.648 66.1862ZM582.575 63.0837C580.418 61.8058 578.657 60.0483 577.288 57.793L575.578 58.831C577.11 61.3543 579.104 63.3515 581.555 64.8043L582.575 63.0837ZM577.296 57.8063C575.959 55.5254 575.257 52.5984 575.257 48.968H573.257C573.257 52.8469 574.006 56.1493 575.57 58.8177L577.296 57.8063ZM575.257 48.968C575.257 45.1361 576.232 41.8879 578.146 39.1767L576.512 38.0233C574.33 41.1147 573.257 44.7786 573.257 48.968H575.257ZM578.154 39.1655C580.085 36.3491 582.834 34.1123 586.447 32.4704L585.619 30.6496C581.722 32.421 578.669 34.8776 576.504 38.0345L578.154 39.1655ZM586.447 32.4704C590.046 30.8343 594.294 30 599.217 30V28C594.07 28 589.529 28.8723 585.619 30.6496L586.447 32.4704ZM599.217 30C604.387 30 609.117 30.9167 613.419 32.737L614.199 30.895C609.626 28.9606 604.628 28 599.217 28V30ZM613.441 32.7457C617.81 34.4771 621.331 37.0623 624.031 40.4978L625.603 39.2622C622.671 35.5297 618.853 32.7389 614.177 30.8863L613.441 32.7457ZM624.106 39.1769L612.97 50.4409L614.392 51.8471L625.528 40.5831L624.106 39.1769ZM614.442 50.4955C612.386 48.0819 610.033 46.3515 607.38 45.345L606.67 47.215C608.966 48.0858 611.05 49.5981 612.92 51.7925L614.442 50.4955ZM607.391 45.3492C604.898 44.37 602.428 43.872 599.985 43.872V45.872C602.15 45.872 604.373 46.3126 606.659 47.2108L607.391 45.3492ZM599.985 43.872C597.696 43.872 595.811 44.2183 594.469 45.0443L595.517 46.7477C596.393 46.2084 597.836 45.872 599.985 45.872V43.872ZM594.519 45.0155C593.84 45.381 593.281 45.866 592.895 46.4896C592.507 47.1161 592.329 47.8262 592.329 48.584H594.329C594.329 48.1471 594.428 47.8119 594.595 47.5424C594.764 47.27 595.036 47.0084 595.467 46.7765L594.519 45.0155ZM592.329 48.584C592.329 50.3429 593.368 51.6559 595.037 52.5398L595.973 50.7722C594.741 50.1201 594.329 49.3851 594.329 48.584H592.329ZM595.037 52.5398C596.58 53.3565 598.537 54.063 600.886 54.672L601.388 52.736C599.129 52.1503 597.332 51.4915 595.973 50.7722L595.037 52.5398ZM600.886 54.672C603.165 55.2629 605.576 55.9816 608.117 56.8287L608.749 54.9313C606.17 54.0717 603.717 53.3397 601.388 52.736L600.886 54.672ZM608.117 56.8287C610.6 57.6564 612.959 58.7739 615.196 60.1822L616.262 58.4898C613.891 56.9968 611.386 55.8102 608.749 54.9313L608.117 56.8287ZM615.196 60.1822C617.357 61.5429 619.124 63.3857 620.498 65.7297L622.224 64.7183C620.696 62.1129 618.709 60.0304 616.262 58.4898L615.196 60.1822ZM620.506 65.743C621.831 67.9249 622.537 70.8831 622.537 74.696H624.537C624.537 70.6582 623.792 67.3017 622.216 64.705L620.506 65.743ZM622.537 74.696C622.537 80.4597 620.365 84.9843 616.011 88.3706L617.239 89.9494C622.101 86.1677 624.537 81.0496 624.537 74.696H622.537ZM616.004 88.3763C611.711 91.7786 605.811 93.536 598.193 93.536V95.536C606.106 95.536 612.494 93.7094 617.246 89.9437L616.004 88.3763ZM682.857 93L681.905 93.3061L682.128 94H682.857V93ZM653.801 2.632V1.632H652.429L652.849 2.93809L653.801 2.632ZM673.769 2.632L674.725 2.33964L674.509 1.632H673.769V2.632ZM695.017 72.136V73.136H696.368L695.973 71.8436L695.017 72.136ZM687.209 72.136L686.251 71.8501L685.867 73.136H687.209V72.136ZM707.945 2.632V1.632H707.2L706.987 2.34611L707.945 2.632ZM723.689 2.632L724.647 2.34611L724.434 1.632H723.689V2.632ZM744.425 72.136V73.136H745.767L745.383 71.8501L744.425 72.136ZM736.745 72.136L735.788 71.8453L735.396 73.136H736.745V72.136ZM757.865 2.632V1.632H757.124L756.908 2.34126L757.865 2.632ZM777.705 2.632L778.657 2.93809L779.077 1.632H777.705V2.632ZM748.649 93V94H749.378L749.601 93.3061L748.649 93ZM732.905 93L731.947 93.2875L732.161 94H732.905V93ZM712.041 23.496V22.496H710.697L711.083 23.7835L712.041 23.496ZM719.465 23.496L720.423 23.7835L720.809 22.496H719.465V23.496ZM698.601 93V94H699.345L699.559 93.2875L698.601 93ZM683.809 92.6939L654.753 2.3259L652.849 2.93809L681.905 93.3061L683.809 92.6939ZM653.801 3.632H673.769V1.632H653.801V3.632ZM672.813 2.92435L694.061 72.4284L695.973 71.8436L674.725 2.33964L672.813 2.92435ZM695.017 71.136H687.209V73.136H695.017V71.136ZM688.167 72.4219L708.903 2.91789L706.987 2.34611L686.251 71.8501L688.167 72.4219ZM707.945 3.632H723.689V1.632H707.945V3.632ZM722.731 2.91789L743.467 72.4219L745.383 71.8501L724.647 2.34611L722.731 2.91789ZM744.425 71.136H736.745V73.136H744.425V71.136ZM737.702 72.4267L758.822 2.92274L756.908 2.34126L735.788 71.8453L737.702 72.4267ZM757.865 3.632H777.705V1.632H757.865V3.632ZM776.753 2.3259L747.697 92.6939L749.601 93.3061L778.657 2.93809L776.753 2.3259ZM748.649 92H732.905V94H748.649V92ZM733.863 92.7125L712.999 23.2085L711.083 23.7835L731.947 93.2875L733.863 92.7125ZM712.041 24.496H719.465V22.496H712.041V24.496ZM718.507 23.2085L697.643 92.7125L699.559 93.2875L720.423 23.7835L718.507 23.2085ZM698.601 92H682.857V94H698.601V92ZM791.331 90.184L790.838 91.054L790.847 91.0589L790.855 91.0635L791.331 90.184ZM779.171 78.408L780.027 77.8913L780.027 77.8913L779.171 78.408ZM779.171 45.256L778.319 44.7327L778.319 44.7327L779.171 45.256ZM791.331 33.736L791.813 34.6123L791.824 34.606L791.331 33.736ZM838.307 45.256L837.451 45.7727L837.455 45.7793L838.307 45.256ZM838.307 78.408L839.163 78.9247L839.163 78.9247L838.307 78.408ZM826.147 90.184L826.629 91.0603L826.64 91.054L826.147 90.184ZM816.163 74.824L816.652 75.6965L816.665 75.6892L816.677 75.6815L816.163 74.824ZM821.027 69.576L820.139 69.1157L820.136 69.1222L820.133 69.1288L821.027 69.576ZM821.027 54.216L820.147 54.6901L820.15 54.6974L820.154 54.7046L821.027 54.216ZM816.035 49.096L815.505 49.944L815.525 49.9567L815.546 49.9685L816.035 49.096ZM801.443 49.096L801.932 49.9685L801.945 49.9612L801.957 49.9535L801.443 49.096ZM796.451 54.216L797.331 54.6901L797.331 54.6901L796.451 54.216ZM796.451 69.576L795.563 70.0363L795.567 70.0432L795.571 70.0501L796.451 69.576ZM801.443 74.824L800.929 75.6815L800.941 75.6892L800.954 75.6965L801.443 74.824ZM808.739 93.408C802.491 93.408 796.854 92.035 791.807 89.3045L790.855 91.0635C796.218 93.965 802.187 95.408 808.739 95.408V93.408ZM791.824 89.314C786.851 86.4957 782.923 82.6909 780.027 77.8913L778.315 78.9247C781.392 84.0238 785.571 88.0696 790.838 91.054L791.824 89.314ZM780.027 77.8913C777.141 73.1078 775.691 67.7418 775.691 61.768H773.691C773.691 68.0822 775.228 73.8095 778.315 78.9247L780.027 77.8913ZM775.691 61.768C775.691 55.7941 777.141 50.4738 780.023 45.7793L778.319 44.7327C775.228 49.7662 773.691 55.4539 773.691 61.768H775.691ZM780.023 45.7793C782.917 41.0666 786.841 37.3467 791.813 34.6122L790.849 32.8598C785.581 35.7573 781.398 39.7173 778.319 44.7327L780.023 45.7793ZM791.824 34.606C796.779 31.7984 802.408 30.384 808.739 30.384V28.384C802.099 28.384 796.123 29.871 790.838 32.866L791.824 34.606ZM808.739 30.384C815.075 30.384 820.708 31.7581 825.665 34.4842L826.629 32.7318C821.346 29.8259 815.374 28.384 808.739 28.384V30.384ZM825.665 34.4842C830.633 37.2164 834.556 40.9757 837.451 45.7727L839.163 44.7393C836.085 39.6376 831.901 35.6316 826.629 32.7318L825.665 34.4842ZM837.455 45.7793C840.337 50.4738 841.787 55.7941 841.787 61.768H843.787C843.787 55.4539 842.25 49.7662 839.159 44.7327L837.455 45.7793ZM841.787 61.768C841.787 67.7418 840.337 73.1078 837.451 77.8913L839.163 78.9247C842.25 73.8095 843.787 68.0822 843.787 61.768H841.787ZM837.451 77.8913C834.555 82.6909 830.627 86.4957 825.654 89.314L826.64 91.054C831.907 88.0696 836.086 84.0238 839.163 78.9247L837.451 77.8913ZM825.665 89.3078C820.708 92.0339 815.075 93.408 808.739 93.408V95.408C815.374 95.408 821.346 93.9661 826.629 91.0602L825.665 89.3078ZM808.739 77.616C811.7 77.616 814.348 76.9867 816.652 75.6965L815.674 73.9515C813.712 75.0506 811.41 75.616 808.739 75.616V77.616ZM816.677 75.6815C818.973 74.304 820.727 72.4125 821.921 70.0232L820.133 69.1288C819.109 71.1768 817.619 72.784 815.649 73.9665L816.677 75.6815ZM821.915 70.0363C823.192 67.574 823.819 64.8104 823.819 61.768H821.819C821.819 64.5283 821.252 66.97 820.139 69.1157L821.915 70.0363ZM823.819 61.768C823.819 58.7276 823.192 56.0356 821.9 53.7274L820.154 54.7046C821.251 56.663 821.819 59.0058 821.819 61.768H823.819ZM821.907 53.7419C820.626 51.3613 818.828 49.514 816.524 48.2235L815.546 49.9685C817.509 51.0674 819.039 52.6334 820.147 54.6901L821.907 53.7419ZM816.565 48.248C814.333 46.8531 811.711 46.176 808.739 46.176V48.176C811.399 48.176 813.641 48.7789 815.505 49.944L816.565 48.248ZM808.739 46.176C805.845 46.176 803.232 46.8563 800.929 48.2385L801.957 49.9535C803.92 48.7757 806.171 48.176 808.739 48.176V46.176ZM800.954 48.2235C798.65 49.514 796.852 51.3613 795.571 53.7419L797.331 54.6901C798.439 52.6334 799.969 51.0674 801.932 49.9685L800.954 48.2235ZM795.571 53.7419C794.286 56.127 793.659 58.8544 793.659 61.896H795.659C795.659 59.1349 796.226 56.7423 797.331 54.6901L795.571 53.7419ZM793.659 61.896C793.659 64.8583 794.289 67.5782 795.563 70.0363L797.339 69.1157C796.224 66.9658 795.659 64.5657 795.659 61.896H793.659ZM795.571 70.0501C796.849 72.425 798.639 74.3077 800.929 75.6815L801.957 73.9665C799.98 72.7803 798.442 71.1643 797.331 69.1019L795.571 70.0501ZM800.954 75.6965C803.254 76.9842 805.858 77.616 808.739 77.616V75.616C806.159 75.616 803.899 75.0531 801.932 73.9515L800.954 75.6965ZM852.537 93H851.537V94H852.537V93ZM852.537 30.792V29.792H851.537V30.792H852.537ZM872.121 30.792H873.121V29.792H872.121V30.792ZM872.121 93V94H873.121V93H872.121ZM872.121 58.824L871.505 59.612L873.121 60.8742V58.824H872.121ZM863.929 52.424L862.953 52.2059L862.815 52.8228L863.313 53.212L863.929 52.424ZM872.121 35.528L872.843 36.2196L872.843 36.2196L872.121 35.528ZM895.929 30.92L895.539 31.841L895.56 31.8498L895.582 31.8577L895.929 30.92ZM901.945 35.016L902.729 35.6365L903.256 34.9712L902.685 34.3433L901.945 35.016ZM890.297 49.736L889.557 50.4087L890.35 51.2807L891.081 50.3565L890.297 49.736ZM887.097 47.56L886.726 48.4885L886.726 48.4885L887.097 47.56ZM874.937 49.864L874.215 49.1721L874.214 49.1728L874.937 49.864ZM853.537 93V30.792H851.537V93H853.537ZM852.537 31.792H872.121V29.792H852.537V31.792ZM871.121 30.792V93H873.121V30.792H871.121ZM872.121 92H852.537V94H872.121V92ZM872.737 58.036L864.545 51.636L863.313 53.212L871.505 59.612L872.737 58.036ZM864.905 52.6421C866.5 45.5084 869.165 40.0611 872.843 36.2196L871.399 34.8364C867.397 39.0162 864.601 44.833 862.953 52.2059L864.905 52.6421ZM872.843 36.2196C876.453 32.4495 881.5 30.512 888.121 30.512V28.512C881.089 28.512 875.469 30.5851 871.399 34.8364L872.843 36.2196ZM888.121 30.512C891.005 30.512 893.47 30.9653 895.539 31.841L896.319 29.999C893.951 28.9973 891.21 28.512 888.121 28.512V30.512ZM895.582 31.8577C897.73 32.6536 899.603 33.9259 901.205 35.6887L902.685 34.3433C900.874 32.3515 898.736 30.8931 896.276 29.9822L895.582 31.8577ZM901.161 34.3955L889.513 49.1155L891.081 50.3565L902.729 35.6365L901.161 34.3955ZM891.037 49.0633C890.073 48.0031 888.877 47.1948 887.468 46.6315L886.726 48.4885C887.877 48.9492 888.814 49.5916 889.557 50.4087L891.037 49.0633ZM887.468 46.6315C886.051 46.0647 884.472 45.792 882.745 45.792V47.792C884.261 47.792 885.583 48.0313 886.726 48.4885L887.468 46.6315ZM882.745 45.792C879.272 45.792 876.394 46.8985 874.215 49.1721L875.659 50.5559C877.405 48.7335 879.732 47.792 882.745 47.792V45.792ZM874.214 49.1728C872.09 51.3938 871.121 54.6771 871.121 58.824H873.121C873.121 54.9496 874.029 52.2595 875.66 50.5552L874.214 49.1728ZM946.97 93L946.141 93.5592L946.438 94H946.97V93ZM925.21 60.744L924.399 60.1585L923.991 60.7245L924.381 61.3032L925.21 60.744ZM946.842 30.792V29.792H946.331L946.031 30.2065L946.842 30.792ZM968.73 30.792L969.52 31.4049L970.771 29.792H968.73V30.792ZM942.618 64.456L941.621 64.3769L941.356 67.7142L943.408 65.0689L942.618 64.456ZM943.258 56.392L944.065 55.802L942.474 53.6249L942.261 56.3129L943.258 56.392ZM970.01 93V94H971.979L970.817 92.41L970.01 93ZM907.162 93H906.162V94H907.162V93ZM907.162 0.0719986V-0.928001H906.162V0.0719986H907.162ZM926.746 0.0719986H927.746V-0.928001H926.746V0.0719986ZM926.746 93V94H927.746V93H926.746ZM947.799 92.4408L926.039 60.1848L924.381 61.3032L946.141 93.5592L947.799 92.4408ZM926.021 61.3295L947.653 31.3775L946.031 30.2065L924.399 60.1585L926.021 61.3295ZM946.842 31.792H968.73V29.792H946.842V31.792ZM967.94 30.1791L941.828 63.8431L943.408 65.0689L969.52 31.4049L967.94 30.1791ZM943.615 64.5351L944.255 56.4711L942.261 56.3129L941.621 64.3769L943.615 64.5351ZM942.451 56.982L969.203 93.59L970.817 92.41L944.065 55.802L942.451 56.982ZM970.01 92H946.97V94H970.01V92ZM908.162 93V0.0719986H906.162V93H908.162ZM907.162 1.072H926.746V-0.928001H907.162V1.072ZM925.746 0.0719986V93H927.746V0.0719986H925.746ZM926.746 92H907.162V94H926.746V92ZM985.188 93.128L984.929 94.0939L984.935 94.0954L985.188 93.128ZM975.332 89.16L974.818 90.0175L974.832 90.0261L974.846 90.0342L975.332 89.16ZM967.652 83.016L966.941 82.3129L966.268 82.9934L966.918 83.6954L967.652 83.016ZM978.788 71.752L979.523 71.0737L978.813 70.3045L978.077 71.0489L978.788 71.752ZM986.084 77L985.67 77.9104L985.682 77.9156L985.693 77.9206L986.084 77ZM1000.55 77.768L1000.08 76.8856L1000.06 76.8925L1000.05 76.8998L1000.55 77.768ZM1000.16 71.496L999.657 72.3579L999.686 72.3752L999.717 72.3904L1000.16 71.496ZM994.532 69.32L994.248 70.2788L994.264 70.2837L994.281 70.288L994.532 69.32ZM979.94 63.944L980.45 63.0837L980.45 63.0837L979.94 63.944ZM974.308 58.312L973.445 58.8177L973.449 58.8244L973.453 58.831L974.308 58.312ZM975.204 38.6L976.021 39.1767L976.029 39.1655L975.204 38.6ZM983.908 31.56L983.494 30.6496L983.494 30.6496L983.908 31.56ZM1011.68 31.816L1011.29 32.737L1011.3 32.7414L1011.32 32.7457L1011.68 31.816ZM1022.69 39.88L1023.4 40.5831L1024.02 39.9558L1023.48 39.2622L1022.69 39.88ZM1011.56 51.144L1010.79 51.7925L1011.5 52.6218L1012.27 51.8471L1011.56 51.144ZM1004.9 46.28L1004.53 47.2108L1004.55 47.215L1004.9 46.28ZM992.868 45.896L993.342 46.7765L993.368 46.7628L993.392 46.7477L992.868 45.896ZM999.012 53.704L998.761 54.672L998.761 54.672L999.012 53.704ZM1006.31 55.88L1006.62 54.9313L1006.62 54.9313L1006.31 55.88ZM1013.6 59.336L1014.14 58.4898L1014.14 58.4898L1013.6 59.336ZM1019.24 65.224L1018.37 65.7297L1018.38 65.7364L1018.38 65.743L1019.24 65.224ZM1014.5 89.16L1013.89 88.3706L1013.88 88.3763L1014.5 89.16ZM996.068 93.536C992.485 93.536 988.943 93.0778 985.441 92.1606L984.935 94.0954C988.601 95.0555 992.312 95.536 996.068 95.536V93.536ZM985.447 92.1622C982.025 91.244 978.816 89.9516 975.818 88.2858L974.846 90.0342C977.992 91.7817 981.354 93.1346 984.929 94.0938L985.447 92.1622ZM975.846 88.3025C972.932 86.5539 970.448 84.564 968.386 82.3366L966.918 83.6954C969.122 86.076 971.758 88.1821 974.818 90.0175L975.846 88.3025ZM968.363 83.7191L979.499 72.4551L978.077 71.0489L966.941 82.3129L968.363 83.7191ZM978.053 72.4303C980.194 74.7494 982.736 76.5766 985.67 77.9104L986.498 76.0896C983.8 74.8634 981.478 73.192 979.523 71.0737L978.053 72.4303ZM985.693 77.9206C988.643 79.1721 991.85 79.792 995.3 79.792V77.792C992.094 77.792 989.157 77.2172 986.475 76.0794L985.693 77.9206ZM995.3 79.792C997.674 79.792 999.628 79.4452 1001.04 78.6362L1000.05 76.8998C999.078 77.4561 997.534 77.792 995.3 77.792V79.792ZM1001.02 78.6504C1002.54 77.8384 1003.47 76.6018 1003.47 74.952H1001.47C1001.47 75.6916 1001.11 76.3323 1000.08 76.8856L1001.02 78.6504ZM1003.47 74.952C1003.47 74.009 1003.23 73.1393 1002.72 72.3813C1002.22 71.6296 1001.5 71.0449 1000.61 70.6016L999.717 72.3904C1000.37 72.7151 1000.79 73.0904 1001.06 73.4907C1001.32 73.8847 1001.47 74.359 1001.47 74.952H1003.47ZM1000.67 70.6341C999.115 69.7187 997.143 68.9638 994.783 68.352L994.281 70.288C996.529 70.8708 998.312 71.5666 999.657 72.3579L1000.67 70.6341ZM994.816 68.3612C992.513 67.6789 990.082 66.9539 987.523 66.1862L986.949 68.1018C989.51 68.8701 991.943 69.5958 994.248 70.2788L994.816 68.3612ZM987.523 66.1862C985.041 65.4416 982.684 64.4077 980.45 63.0837L979.43 64.8043C981.804 66.211 984.311 67.3104 986.949 68.1018L987.523 66.1862ZM980.45 63.0837C978.293 61.8058 976.532 60.0483 975.163 57.793L973.453 58.831C974.985 61.3543 976.979 63.3515 979.43 64.8043L980.45 63.0837ZM975.171 57.8063C973.834 55.5254 973.132 52.5984 973.132 48.968H971.132C971.132 52.8469 971.881 56.1493 973.445 58.8177L975.171 57.8063ZM973.132 48.968C973.132 45.1361 974.107 41.8879 976.021 39.1767L974.387 38.0233C972.205 41.1147 971.132 44.7786 971.132 48.968H973.132ZM976.029 39.1655C977.96 36.3491 980.709 34.1123 984.322 32.4704L983.494 30.6496C979.597 32.421 976.544 34.8776 974.379 38.0345L976.029 39.1655ZM984.322 32.4704C987.921 30.8343 992.169 30 997.092 30V28C991.945 28 987.404 28.8723 983.494 30.6496L984.322 32.4704ZM997.092 30C1002.26 30 1006.99 30.9167 1011.29 32.737L1012.07 30.895C1007.5 28.9606 1002.5 28 997.092 28V30ZM1011.32 32.7457C1015.69 34.4771 1019.21 37.0623 1021.91 40.4978L1023.48 39.2622C1020.55 35.5297 1016.73 32.7389 1012.05 30.8863L1011.32 32.7457ZM1021.98 39.1769L1010.84 50.4409L1012.27 51.8471L1023.4 40.5831L1021.98 39.1769ZM1012.32 50.4955C1010.26 48.0819 1007.91 46.3515 1005.25 45.345L1004.55 47.215C1006.84 48.0858 1008.93 49.5981 1010.79 51.7925L1012.32 50.4955ZM1005.27 45.3492C1002.77 44.37 1000.3 43.872 997.86 43.872V45.872C1000.03 45.872 1002.25 46.3126 1004.53 47.2108L1005.27 45.3492ZM997.86 43.872C995.571 43.872 993.686 44.2183 992.344 45.0443L993.392 46.7477C994.268 46.2084 995.711 45.872 997.86 45.872V43.872ZM992.394 45.0155C991.715 45.381 991.156 45.866 990.77 46.4896C990.382 47.1161 990.204 47.8262 990.204 48.584H992.204C992.204 48.1471 992.303 47.8119 992.47 47.5424C992.639 47.27 992.911 47.0084 993.342 46.7765L992.394 45.0155ZM990.204 48.584C990.204 50.3429 991.243 51.6559 992.912 52.5398L993.848 50.7722C992.616 50.1201 992.204 49.3851 992.204 48.584H990.204ZM992.912 52.5398C994.455 53.3565 996.412 54.063 998.761 54.672L999.263 52.736C997.004 52.1503 995.207 51.4915 993.848 50.7722L992.912 52.5398ZM998.761 54.672C1001.04 55.2629 1003.45 55.9816 1005.99 56.8287L1006.62 54.9313C1004.05 54.0717 1001.59 53.3397 999.263 52.736L998.761 54.672ZM1005.99 56.8287C1008.48 57.6564 1010.83 58.7739 1013.07 60.1822L1014.14 58.4898C1011.77 56.9968 1009.26 55.8102 1006.62 54.9313L1005.99 56.8287ZM1013.07 60.1822C1015.23 61.5429 1017 63.3857 1018.37 65.7297L1020.1 64.7183C1018.57 62.1129 1016.58 60.0304 1014.14 58.4898L1013.07 60.1822ZM1018.38 65.743C1019.71 67.9249 1020.41 70.8831 1020.41 74.696H1022.41C1022.41 70.6582 1021.67 67.3017 1020.09 64.705L1018.38 65.743ZM1020.41 74.696C1020.41 80.4597 1018.24 84.9843 1013.89 88.3706L1015.11 89.9494C1019.98 86.1677 1022.41 81.0496 1022.41 74.696H1020.41ZM1013.88 88.3763C1009.59 91.7786 1003.69 93.536 996.068 93.536V95.536C1003.98 95.536 1010.37 93.7094 1015.12 89.9437L1013.88 88.3763Z" fill="#444444" mask="url(#path-1-outside-1_1082_1713)"/>
</svg>
