<svg width="410" height="140" viewBox="0 0 410 140" fill="none" xmlns="http://www.w3.org/2000/svg">
<rect x="55" y="105.44" width="353.394" height="34.4377" rx="17.2189" transform="rotate(-1.69286 55 105.44)" fill="#A64CED"/>
<path d="M6.192 26.604V22.608H12.06C12.828 22.608 13.524 22.452 14.148 22.14C14.772 21.828 15.264 21.384 15.624 20.808C15.984 20.208 16.164 19.488 16.164 18.648C16.164 17.832 15.984 17.124 15.624 16.524C15.264 15.924 14.772 15.468 14.148 15.156C13.524 14.844 12.828 14.688 12.06 14.688H6.192V10.692H12.564C14.172 10.692 15.612 11.016 16.884 11.664C18.18 12.312 19.2 13.236 19.944 14.436C20.688 15.612 21.06 17.016 21.06 18.648C21.06 20.28 20.688 21.696 19.944 22.896C19.2 24.072 18.18 24.984 16.884 25.632C15.612 26.28 14.172 26.604 12.564 26.604H6.192ZM2.592 36V10.692H7.488V36H2.592ZM30.735 36.36C29.151 36.36 27.723 35.964 26.451 35.172C25.179 34.38 24.183 33.3 23.463 31.932C22.743 30.564 22.383 29.028 22.383 27.324C22.383 25.596 22.743 24.048 23.463 22.68C24.183 21.312 25.179 20.232 26.451 19.44C27.723 18.648 29.151 18.252 30.735 18.252C31.983 18.252 33.099 18.504 34.083 19.008C35.067 19.512 35.847 20.22 36.423 21.132C37.023 22.02 37.347 23.028 37.395 24.156V30.42C37.347 31.572 37.023 32.592 36.423 33.48C35.847 34.368 35.067 35.076 34.083 35.604C33.099 36.108 31.983 36.36 30.735 36.36ZM31.599 32.004C32.919 32.004 33.987 31.572 34.803 30.708C35.619 29.82 36.027 28.68 36.027 27.288C36.027 26.376 35.835 25.572 35.451 24.876C35.091 24.156 34.575 23.604 33.903 23.22C33.255 22.812 32.487 22.608 31.599 22.608C30.735 22.608 29.967 22.812 29.295 23.22C28.647 23.604 28.131 24.156 27.747 24.876C27.387 25.572 27.207 26.376 27.207 27.288C27.207 28.224 27.387 29.052 27.747 29.772C28.131 30.468 28.647 31.02 29.295 31.428C29.967 31.812 30.735 32.004 31.599 32.004ZM35.775 36V31.32L36.531 27.072L35.775 22.896V18.612H40.455V36H35.775ZM50.0991 36.144L42.8271 18.612H47.9391L52.7631 32.004H51.0351L56.0391 18.612H61.1871L53.4471 36.108L50.0991 36.144ZM45.2751 43.272L50.5671 32.076L53.4471 36.108L50.2791 43.272H45.2751ZM63.1544 36V18.612H67.8704V36H63.1544ZM74.4944 36V25.74C74.4944 24.732 74.1704 23.952 73.5224 23.4C72.8984 22.824 72.1184 22.536 71.1824 22.536C70.5584 22.536 69.9944 22.668 69.4904 22.932C68.9864 23.172 68.5904 23.532 68.3024 24.012C68.0144 24.492 67.8704 25.068 67.8704 25.74L66.0344 24.84C66.0344 23.496 66.3224 22.332 66.8984 21.348C67.4984 20.364 68.3024 19.608 69.3104 19.08C70.3184 18.528 71.4584 18.252 72.7304 18.252C73.9304 18.252 75.0224 18.528 76.0064 19.08C76.9904 19.608 77.7704 20.364 78.3464 21.348C78.9224 22.308 79.2104 23.472 79.2104 24.84V36H74.4944ZM85.8344 36V25.74C85.8344 24.732 85.5104 23.952 84.8624 23.4C84.2384 22.824 83.4584 22.536 82.5224 22.536C81.9224 22.536 81.3584 22.668 80.8304 22.932C80.3264 23.172 79.9304 23.532 79.6424 24.012C79.3544 24.492 79.2104 25.068 79.2104 25.74L76.5104 25.092C76.6064 23.7 76.9784 22.5 77.6264 21.492C78.2744 20.46 79.1264 19.668 80.1824 19.116C81.2384 18.54 82.4144 18.252 83.7104 18.252C85.0064 18.252 86.1704 18.528 87.2024 19.08C88.2344 19.608 89.0504 20.376 89.6504 21.384C90.2504 22.392 90.5504 23.592 90.5504 24.984V36H85.8344ZM102.689 36.36C100.865 36.36 99.2452 35.976 97.8292 35.208C96.4132 34.416 95.2852 33.336 94.4452 31.968C93.6292 30.6 93.2212 29.04 93.2212 27.288C93.2212 25.56 93.6172 24.024 94.4092 22.68C95.2252 21.312 96.3292 20.232 97.7212 19.44C99.1132 18.624 100.661 18.216 102.365 18.216C104.045 18.216 105.521 18.6 106.793 19.368C108.089 20.112 109.097 21.144 109.817 22.464C110.561 23.76 110.933 25.236 110.933 26.892C110.933 27.204 110.909 27.528 110.861 27.864C110.837 28.176 110.777 28.536 110.681 28.944L96.0652 28.98V25.452L108.485 25.416L106.577 26.892C106.529 25.86 106.337 24.996 106.001 24.3C105.689 23.604 105.221 23.076 104.597 22.716C103.997 22.332 103.253 22.14 102.365 22.14C101.429 22.14 100.613 22.356 99.9172 22.788C99.2212 23.196 98.6812 23.784 98.2972 24.552C97.9372 25.296 97.7572 26.184 97.7572 27.216C97.7572 28.272 97.9492 29.196 98.3332 29.988C98.7412 30.756 99.3172 31.356 100.061 31.788C100.805 32.196 101.669 32.4 102.653 32.4C103.541 32.4 104.345 32.256 105.065 31.968C105.785 31.656 106.409 31.2 106.937 30.6L109.709 33.372C108.869 34.356 107.837 35.1 106.613 35.604C105.413 36.108 104.105 36.36 102.689 36.36ZM125.55 36V26.028C125.55 24.996 125.226 24.156 124.578 23.508C123.93 22.86 123.09 22.536 122.058 22.536C121.386 22.536 120.786 22.68 120.258 22.968C119.73 23.256 119.31 23.664 118.998 24.192C118.71 24.72 118.566 25.332 118.566 26.028L116.73 25.092C116.73 23.724 117.018 22.536 117.594 21.528C118.194 20.496 119.01 19.692 120.042 19.116C121.098 18.54 122.286 18.252 123.606 18.252C124.878 18.252 126.018 18.576 127.026 19.224C128.034 19.848 128.826 20.676 129.402 21.708C129.978 22.716 130.266 23.808 130.266 24.984V36H125.55ZM113.85 36V18.612H118.566V36H113.85ZM136.41 36V11.376H141.126V36H136.41ZM132.342 22.752V18.612H145.194V22.752H132.342ZM162.149 36.36C160.565 36.36 159.137 35.964 157.865 35.172C156.593 34.38 155.597 33.3 154.877 31.932C154.157 30.564 153.797 29.028 153.797 27.324C153.797 25.596 154.157 24.048 154.877 22.68C155.597 21.312 156.593 20.232 157.865 19.44C159.137 18.648 160.565 18.252 162.149 18.252C163.397 18.252 164.513 18.504 165.497 19.008C166.481 19.512 167.261 20.22 167.837 21.132C168.437 22.02 168.761 23.028 168.809 24.156V30.42C168.761 31.572 168.437 32.592 167.837 33.48C167.261 34.368 166.481 35.076 165.497 35.604C164.513 36.108 163.397 36.36 162.149 36.36ZM163.013 32.004C164.333 32.004 165.401 31.572 166.217 30.708C167.033 29.82 167.441 28.68 167.441 27.288C167.441 26.376 167.249 25.572 166.865 24.876C166.505 24.156 165.989 23.604 165.317 23.22C164.669 22.812 163.901 22.608 163.013 22.608C162.149 22.608 161.381 22.812 160.709 23.22C160.061 23.604 159.545 24.156 159.161 24.876C158.801 25.572 158.621 26.376 158.621 27.288C158.621 28.224 158.801 29.052 159.161 29.772C159.545 30.468 160.061 31.02 160.709 31.428C161.381 31.812 162.149 32.004 163.013 32.004ZM167.189 36V31.32L167.945 27.072L167.189 22.896V18.612H171.869V36H167.189ZM182.017 36.396C181.033 36.396 180.061 36.264 179.101 36C178.165 35.736 177.301 35.376 176.509 34.92C175.717 34.44 175.033 33.864 174.457 33.192L177.265 30.348C177.865 31.02 178.561 31.524 179.353 31.86C180.145 32.196 181.021 32.364 181.981 32.364C182.749 32.364 183.325 32.256 183.709 32.04C184.117 31.824 184.321 31.5 184.321 31.068C184.321 30.588 184.105 30.216 183.673 29.952C183.265 29.688 182.725 29.472 182.053 29.304C181.381 29.112 180.673 28.908 179.929 28.692C179.209 28.452 178.513 28.152 177.841 27.792C177.169 27.408 176.617 26.892 176.185 26.244C175.777 25.572 175.573 24.708 175.573 23.652C175.573 22.548 175.837 21.588 176.365 20.772C176.917 19.956 177.697 19.32 178.705 18.864C179.713 18.408 180.901 18.18 182.269 18.18C183.709 18.18 185.005 18.432 186.157 18.936C187.333 19.44 188.305 20.196 189.073 21.204L186.229 24.048C185.701 23.4 185.101 22.932 184.429 22.644C183.781 22.356 183.073 22.212 182.305 22.212C181.609 22.212 181.069 22.32 180.685 22.536C180.325 22.752 180.145 23.052 180.145 23.436C180.145 23.868 180.349 24.204 180.757 24.444C181.189 24.684 181.741 24.9 182.413 25.092C183.085 25.26 183.781 25.464 184.501 25.704C185.245 25.92 185.941 26.232 186.589 26.64C187.261 27.048 187.801 27.588 188.209 28.26C188.641 28.932 188.857 29.796 188.857 30.852C188.857 32.556 188.245 33.912 187.021 34.92C185.797 35.904 184.129 36.396 182.017 36.396ZM206.34 36.36C204.756 36.36 203.328 35.964 202.056 35.172C200.784 34.38 199.788 33.3 199.068 31.932C198.348 30.564 197.988 29.028 197.988 27.324C197.988 25.596 198.348 24.048 199.068 22.68C199.788 21.312 200.784 20.232 202.056 19.44C203.328 18.648 204.756 18.252 206.34 18.252C207.588 18.252 208.704 18.504 209.688 19.008C210.672 19.512 211.452 20.22 212.028 21.132C212.628 22.02 212.952 23.028 213 24.156V30.42C212.952 31.572 212.628 32.592 212.028 33.48C211.452 34.368 210.672 35.076 209.688 35.604C208.704 36.108 207.588 36.36 206.34 36.36ZM207.204 32.004C208.524 32.004 209.592 31.572 210.408 30.708C211.224 29.82 211.632 28.68 211.632 27.288C211.632 26.376 211.44 25.572 211.056 24.876C210.696 24.156 210.18 23.604 209.508 23.22C208.86 22.812 208.092 22.608 207.204 22.608C206.34 22.608 205.572 22.812 204.9 23.22C204.252 23.604 203.736 24.156 203.352 24.876C202.992 25.572 202.812 26.376 202.812 27.288C202.812 28.224 202.992 29.052 203.352 29.772C203.736 30.468 204.252 31.02 204.9 31.428C205.572 31.812 206.34 32.004 207.204 32.004ZM211.38 36V31.32L212.136 27.072L211.38 22.896V18.612H216.06V36H211.38ZM233.24 36.396C232.256 36.396 231.284 36.264 230.324 36C229.388 35.736 228.524 35.376 227.732 34.92C226.94 34.44 226.256 33.864 225.68 33.192L228.488 30.348C229.088 31.02 229.784 31.524 230.576 31.86C231.368 32.196 232.244 32.364 233.204 32.364C233.972 32.364 234.548 32.256 234.932 32.04C235.34 31.824 235.544 31.5 235.544 31.068C235.544 30.588 235.328 30.216 234.896 29.952C234.488 29.688 233.948 29.472 233.276 29.304C232.604 29.112 231.896 28.908 231.152 28.692C230.432 28.452 229.736 28.152 229.064 27.792C228.392 27.408 227.84 26.892 227.408 26.244C227 25.572 226.796 24.708 226.796 23.652C226.796 22.548 227.06 21.588 227.588 20.772C228.14 19.956 228.92 19.32 229.928 18.864C230.936 18.408 232.124 18.18 233.492 18.18C234.932 18.18 236.228 18.432 237.38 18.936C238.556 19.44 239.528 20.196 240.296 21.204L237.452 24.048C236.924 23.4 236.324 22.932 235.652 22.644C235.004 22.356 234.296 22.212 233.528 22.212C232.832 22.212 232.292 22.32 231.908 22.536C231.548 22.752 231.368 23.052 231.368 23.436C231.368 23.868 231.572 24.204 231.98 24.444C232.412 24.684 232.964 24.9 233.636 25.092C234.308 25.26 235.004 25.464 235.724 25.704C236.468 25.92 237.164 26.232 237.812 26.64C238.484 27.048 239.024 27.588 239.432 28.26C239.864 28.932 240.08 29.796 240.08 30.852C240.08 32.556 239.468 33.912 238.244 34.92C237.02 35.904 235.352 36.396 233.24 36.396ZM251.576 36.36C249.752 36.36 248.132 35.976 246.716 35.208C245.3 34.416 244.172 33.336 243.332 31.968C242.516 30.6 242.108 29.04 242.108 27.288C242.108 25.56 242.504 24.024 243.296 22.68C244.112 21.312 245.216 20.232 246.608 19.44C248 18.624 249.548 18.216 251.252 18.216C252.932 18.216 254.408 18.6 255.68 19.368C256.976 20.112 257.984 21.144 258.704 22.464C259.448 23.76 259.82 25.236 259.82 26.892C259.82 27.204 259.796 27.528 259.748 27.864C259.724 28.176 259.664 28.536 259.568 28.944L244.952 28.98V25.452L257.372 25.416L255.464 26.892C255.416 25.86 255.224 24.996 254.888 24.3C254.576 23.604 254.108 23.076 253.484 22.716C252.884 22.332 252.14 22.14 251.252 22.14C250.316 22.14 249.5 22.356 248.804 22.788C248.108 23.196 247.568 23.784 247.184 24.552C246.824 25.296 246.644 26.184 246.644 27.216C246.644 28.272 246.836 29.196 247.22 29.988C247.628 30.756 248.204 31.356 248.948 31.788C249.692 32.196 250.556 32.4 251.54 32.4C252.428 32.4 253.232 32.256 253.952 31.968C254.672 31.656 255.296 31.2 255.824 30.6L258.596 33.372C257.756 34.356 256.724 35.1 255.5 35.604C254.3 36.108 252.992 36.36 251.576 36.36ZM262.736 36V18.612H267.452V36H262.736ZM267.452 26.388L265.616 25.164C265.832 23.028 266.456 21.348 267.488 20.124C268.52 18.876 270.008 18.252 271.952 18.252C272.792 18.252 273.548 18.396 274.22 18.684C274.892 18.948 275.504 19.392 276.056 20.016L273.104 23.4C272.84 23.112 272.516 22.896 272.132 22.752C271.772 22.608 271.352 22.536 270.872 22.536C269.864 22.536 269.036 22.86 268.388 23.508C267.764 24.132 267.452 25.092 267.452 26.388ZM283.189 36L275.521 18.612H280.705L286.213 32.94H283.657L289.201 18.612H294.205L286.573 36H283.189ZM296.381 36V18.612H301.133V36H296.381ZM298.757 15.804C297.989 15.804 297.353 15.552 296.849 15.048C296.345 14.52 296.093 13.872 296.093 13.104C296.093 12.36 296.345 11.724 296.849 11.196C297.353 10.668 297.989 10.404 298.757 10.404C299.549 10.404 300.185 10.668 300.665 11.196C301.169 11.724 301.421 12.36 301.421 13.104C301.421 13.872 301.169 14.52 300.665 15.048C300.185 15.552 299.549 15.804 298.757 15.804ZM313.519 36.36C311.743 36.36 310.147 35.964 308.731 35.172C307.315 34.38 306.199 33.3 305.383 31.932C304.567 30.564 304.159 29.028 304.159 27.324C304.159 25.596 304.567 24.048 305.383 22.68C306.199 21.312 307.315 20.232 308.731 19.44C310.171 18.624 311.767 18.216 313.519 18.216C314.887 18.216 316.147 18.468 317.299 18.972C318.451 19.476 319.447 20.196 320.287 21.132L317.263 24.192C316.807 23.688 316.255 23.304 315.607 23.04C314.983 22.776 314.287 22.644 313.519 22.644C312.655 22.644 311.875 22.848 311.179 23.256C310.507 23.64 309.967 24.18 309.559 24.876C309.175 25.548 308.983 26.352 308.983 27.288C308.983 28.2 309.175 29.016 309.559 29.736C309.967 30.432 310.507 30.984 311.179 31.392C311.875 31.776 312.655 31.968 313.519 31.968C314.311 31.968 315.019 31.836 315.643 31.572C316.291 31.284 316.843 30.876 317.299 30.348L320.359 33.408C319.471 34.368 318.451 35.1 317.299 35.604C316.147 36.108 314.887 36.36 313.519 36.36ZM330.959 36.36C329.135 36.36 327.515 35.976 326.099 35.208C324.683 34.416 323.555 33.336 322.715 31.968C321.899 30.6 321.491 29.04 321.491 27.288C321.491 25.56 321.887 24.024 322.679 22.68C323.495 21.312 324.599 20.232 325.991 19.44C327.383 18.624 328.931 18.216 330.635 18.216C332.315 18.216 333.791 18.6 335.063 19.368C336.359 20.112 337.367 21.144 338.087 22.464C338.831 23.76 339.203 25.236 339.203 26.892C339.203 27.204 339.179 27.528 339.131 27.864C339.107 28.176 339.047 28.536 338.951 28.944L324.335 28.98V25.452L336.755 25.416L334.847 26.892C334.799 25.86 334.607 24.996 334.271 24.3C333.959 23.604 333.491 23.076 332.867 22.716C332.267 22.332 331.523 22.14 330.635 22.14C329.699 22.14 328.883 22.356 328.187 22.788C327.491 23.196 326.951 23.784 326.567 24.552C326.207 25.296 326.027 26.184 326.027 27.216C326.027 28.272 326.219 29.196 326.603 29.988C327.011 30.756 327.587 31.356 328.331 31.788C329.075 32.196 329.939 32.4 330.923 32.4C331.811 32.4 332.615 32.256 333.335 31.968C334.055 31.656 334.679 31.2 335.207 30.6L337.979 33.372C337.139 34.356 336.107 35.1 334.883 35.604C333.683 36.108 332.375 36.36 330.959 36.36ZM342.083 40.284L344.639 35.532L346.115 35.136C345.947 35.448 345.755 35.712 345.539 35.928C345.323 36.144 345.071 36.252 344.783 36.252C344.183 36.252 343.619 35.988 343.091 35.46C342.563 34.932 342.299 34.272 342.299 33.48C342.299 32.616 342.587 31.884 343.163 31.284C343.739 30.684 344.459 30.384 345.323 30.384C346.115 30.384 346.811 30.684 347.411 31.284C348.011 31.884 348.311 32.616 348.311 33.48C348.311 33.816 348.239 34.224 348.095 34.704C347.951 35.16 347.687 35.748 347.303 36.468L344.531 41.58L342.083 40.284ZM11.736 81.36C10.488 81.36 9.36 81.108 8.352 80.604C7.344 80.076 6.54 79.368 5.94 78.48C5.34 77.592 5.016 76.572 4.968 75.42V69.264C5.016 68.112 5.34 67.092 5.94 66.204C6.564 65.292 7.368 64.572 8.352 64.044C9.36 63.516 10.488 63.252 11.736 63.252C13.344 63.252 14.784 63.648 16.056 64.44C17.328 65.232 18.324 66.312 19.044 67.68C19.788 69.048 20.16 70.596 20.16 72.324C20.16 74.028 19.788 75.564 19.044 76.932C18.324 78.3 17.328 79.38 16.056 80.172C14.784 80.964 13.344 81.36 11.736 81.36ZM10.908 77.004C11.772 77.004 12.54 76.812 13.212 76.428C13.884 76.02 14.4 75.468 14.76 74.772C15.144 74.052 15.336 73.224 15.336 72.288C15.336 71.376 15.144 70.572 14.76 69.876C14.4 69.156 13.884 68.604 13.212 68.22C12.54 67.812 11.772 67.608 10.908 67.608C10.068 67.608 9.312 67.812 8.64 68.22C7.968 68.604 7.44 69.156 7.056 69.876C6.696 70.572 6.516 71.376 6.516 72.288C6.516 73.224 6.696 74.052 7.056 74.772C7.44 75.468 7.956 76.02 8.604 76.428C9.276 76.812 10.044 77.004 10.908 77.004ZM2.088 88.272V63.612H6.804V68.184L6.012 72.396L6.768 76.608V88.272H2.088ZM31.4241 81.36C29.6721 81.36 28.0881 80.964 26.6721 80.172C25.2801 79.356 24.1641 78.264 23.3241 76.896C22.5081 75.504 22.1001 73.956 22.1001 72.252C22.1001 70.548 22.5081 69.024 23.3241 67.68C24.1401 66.312 25.2561 65.232 26.6721 64.44C28.0881 63.624 29.6601 63.216 31.3881 63.216C33.1641 63.216 34.7481 63.624 36.1401 64.44C37.5561 65.232 38.6721 66.312 39.4881 67.68C40.3041 69.024 40.7121 70.548 40.7121 72.252C40.7121 73.956 40.3041 75.504 39.4881 76.896C38.6721 78.264 37.5561 79.356 36.1401 80.172C34.7481 80.964 33.1761 81.36 31.4241 81.36ZM31.3881 76.968C32.2761 76.968 33.0561 76.776 33.7281 76.392C34.4241 75.984 34.9521 75.432 35.3121 74.736C35.6961 74.016 35.8881 73.2 35.8881 72.288C35.8881 71.376 35.6961 70.572 35.3121 69.876C34.9281 69.18 34.4001 68.64 33.7281 68.256C33.0561 67.848 32.2761 67.644 31.3881 67.644C30.5241 67.644 29.7561 67.848 29.0841 68.256C28.4121 68.64 27.8841 69.18 27.5001 69.876C27.1161 70.572 26.9241 71.376 26.9241 72.288C26.9241 73.2 27.1161 74.016 27.5001 74.736C27.8841 75.432 28.4121 75.984 29.0841 76.392C29.7561 76.776 30.5241 76.968 31.3881 76.968ZM48.0054 81L41.4894 63.612H46.2414L50.4894 76.248L49.0494 76.284L53.4054 63.612H56.8254L61.1814 76.284L59.7414 76.248L63.9894 63.612H68.7414L62.2614 81H58.8414L54.4494 68.976H55.7814L51.3894 81H48.0054ZM78.9587 81.36C77.1347 81.36 75.5147 80.976 74.0987 80.208C72.6827 79.416 71.5547 78.336 70.7147 76.968C69.8987 75.6 69.4907 74.04 69.4907 72.288C69.4907 70.56 69.8867 69.024 70.6787 67.68C71.4947 66.312 72.5987 65.232 73.9907 64.44C75.3827 63.624 76.9307 63.216 78.6347 63.216C80.3147 63.216 81.7907 63.6 83.0627 64.368C84.3587 65.112 85.3667 66.144 86.0867 67.464C86.8307 68.76 87.2027 70.236 87.2027 71.892C87.2027 72.204 87.1787 72.528 87.1307 72.864C87.1067 73.176 87.0467 73.536 86.9507 73.944L72.3347 73.98V70.452L84.7547 70.416L82.8467 71.892C82.7987 70.86 82.6067 69.996 82.2707 69.3C81.9587 68.604 81.4907 68.076 80.8667 67.716C80.2667 67.332 79.5227 67.14 78.6347 67.14C77.6987 67.14 76.8827 67.356 76.1867 67.788C75.4907 68.196 74.9507 68.784 74.5667 69.552C74.2067 70.296 74.0267 71.184 74.0267 72.216C74.0267 73.272 74.2187 74.196 74.6027 74.988C75.0107 75.756 75.5867 76.356 76.3307 76.788C77.0747 77.196 77.9387 77.4 78.9227 77.4C79.8107 77.4 80.6147 77.256 81.3347 76.968C82.0547 76.656 82.6787 76.2 83.2067 75.6L85.9787 78.372C85.1387 79.356 84.1067 80.1 82.8827 80.604C81.6827 81.108 80.3747 81.36 78.9587 81.36ZM90.1193 81V63.612H94.8353V81H90.1193ZM94.8353 71.388L92.9993 70.164C93.2153 68.028 93.8393 66.348 94.8713 65.124C95.9033 63.876 97.3913 63.252 99.3353 63.252C100.175 63.252 100.931 63.396 101.603 63.684C102.275 63.948 102.887 64.392 103.439 65.016L100.487 68.4C100.223 68.112 99.8993 67.896 99.5153 67.752C99.1553 67.608 98.7353 67.536 98.2553 67.536C97.2473 67.536 96.4193 67.86 95.7713 68.508C95.1473 69.132 94.8353 70.092 94.8353 71.388ZM112.92 81.36C111.096 81.36 109.476 80.976 108.06 80.208C106.644 79.416 105.516 78.336 104.676 76.968C103.86 75.6 103.452 74.04 103.452 72.288C103.452 70.56 103.848 69.024 104.64 67.68C105.456 66.312 106.56 65.232 107.952 64.44C109.344 63.624 110.892 63.216 112.596 63.216C114.276 63.216 115.752 63.6 117.024 64.368C118.32 65.112 119.328 66.144 120.048 67.464C120.792 68.76 121.164 70.236 121.164 71.892C121.164 72.204 121.14 72.528 121.092 72.864C121.068 73.176 121.008 73.536 120.912 73.944L106.296 73.98V70.452L118.716 70.416L116.808 71.892C116.76 70.86 116.568 69.996 116.232 69.3C115.92 68.604 115.452 68.076 114.828 67.716C114.228 67.332 113.484 67.14 112.596 67.14C111.66 67.14 110.844 67.356 110.148 67.788C109.452 68.196 108.912 68.784 108.528 69.552C108.168 70.296 107.988 71.184 107.988 72.216C107.988 73.272 108.18 74.196 108.564 74.988C108.972 75.756 109.548 76.356 110.292 76.788C111.036 77.196 111.9 77.4 112.884 77.4C113.772 77.4 114.576 77.256 115.296 76.968C116.016 76.656 116.64 76.2 117.168 75.6L119.94 78.372C119.1 79.356 118.068 80.1 116.844 80.604C115.644 81.108 114.336 81.36 112.92 81.36ZM131.424 81.36C129.816 81.36 128.376 80.964 127.104 80.172C125.832 79.38 124.824 78.3 124.08 76.932C123.36 75.564 123 74.028 123 72.324C123 70.596 123.36 69.048 124.08 67.68C124.824 66.312 125.82 65.232 127.068 64.44C128.34 63.648 129.792 63.252 131.424 63.252C132.672 63.252 133.788 63.504 134.772 64.008C135.78 64.512 136.584 65.22 137.184 66.132C137.808 67.02 138.144 68.028 138.192 69.156V75.348C138.144 76.476 137.82 77.496 137.22 78.408C136.62 79.32 135.816 80.04 134.808 80.568C133.8 81.096 132.672 81.36 131.424 81.36ZM132.216 77.004C133.104 77.004 133.872 76.812 134.52 76.428C135.192 76.02 135.708 75.468 136.068 74.772C136.452 74.052 136.644 73.224 136.644 72.288C136.644 71.376 136.452 70.572 136.068 69.876C135.708 69.156 135.192 68.604 134.52 68.22C133.872 67.812 133.116 67.608 132.252 67.608C131.364 67.608 130.584 67.812 129.912 68.22C129.264 68.628 128.748 69.18 128.364 69.876C128.004 70.572 127.824 71.376 127.824 72.288C127.824 73.224 128.004 74.052 128.364 74.772C128.748 75.468 129.276 76.02 129.948 76.428C130.62 76.812 131.376 77.004 132.216 77.004ZM141.072 81H136.392V76.32L137.148 72.072L136.356 67.896V54.972H141.072V81ZM158.252 81.396C157.268 81.396 156.296 81.264 155.336 81C154.4 80.736 153.536 80.376 152.744 79.92C151.952 79.44 151.268 78.864 150.692 78.192L153.5 75.348C154.1 76.02 154.796 76.524 155.588 76.86C156.38 77.196 157.256 77.364 158.216 77.364C158.984 77.364 159.56 77.256 159.944 77.04C160.352 76.824 160.556 76.5 160.556 76.068C160.556 75.588 160.34 75.216 159.908 74.952C159.5 74.688 158.96 74.472 158.288 74.304C157.616 74.112 156.908 73.908 156.164 73.692C155.444 73.452 154.748 73.152 154.076 72.792C153.404 72.408 152.852 71.892 152.42 71.244C152.012 70.572 151.808 69.708 151.808 68.652C151.808 67.548 152.072 66.588 152.6 65.772C153.152 64.956 153.932 64.32 154.939 63.864C155.948 63.408 157.136 63.18 158.504 63.18C159.944 63.18 161.24 63.432 162.392 63.936C163.568 64.44 164.54 65.196 165.308 66.204L162.464 69.048C161.936 68.4 161.336 67.932 160.664 67.644C160.016 67.356 159.308 67.212 158.54 67.212C157.844 67.212 157.304 67.32 156.92 67.536C156.56 67.752 156.38 68.052 156.38 68.436C156.38 68.868 156.584 69.204 156.992 69.444C157.424 69.684 157.976 69.9 158.648 70.092C159.32 70.26 160.016 70.464 160.736 70.704C161.48 70.92 162.176 71.232 162.824 71.64C163.496 72.048 164.036 72.588 164.444 73.26C164.876 73.932 165.092 74.796 165.092 75.852C165.092 77.556 164.48 78.912 163.256 79.92C162.032 80.904 160.364 81.396 158.252 81.396ZM176.588 81.36C174.764 81.36 173.144 80.976 171.728 80.208C170.312 79.416 169.184 78.336 168.344 76.968C167.528 75.6 167.12 74.04 167.12 72.288C167.12 70.56 167.516 69.024 168.308 67.68C169.124 66.312 170.228 65.232 171.62 64.44C173.012 63.624 174.56 63.216 176.264 63.216C177.944 63.216 179.42 63.6 180.692 64.368C181.988 65.112 182.996 66.144 183.716 67.464C184.46 68.76 184.832 70.236 184.832 71.892C184.832 72.204 184.808 72.528 184.76 72.864C184.736 73.176 184.676 73.536 184.58 73.944L169.964 73.98V70.452L182.384 70.416L180.476 71.892C180.428 70.86 180.236 69.996 179.9 69.3C179.588 68.604 179.12 68.076 178.496 67.716C177.896 67.332 177.152 67.14 176.264 67.14C175.328 67.14 174.512 67.356 173.816 67.788C173.12 68.196 172.58 68.784 172.196 69.552C171.836 70.296 171.656 71.184 171.656 72.216C171.656 73.272 171.848 74.196 172.232 74.988C172.64 75.756 173.216 76.356 173.96 76.788C174.704 77.196 175.568 77.4 176.552 77.4C177.44 77.4 178.244 77.256 178.964 76.968C179.684 76.656 180.308 76.2 180.836 75.6L183.608 78.372C182.768 79.356 181.736 80.1 180.512 80.604C179.312 81.108 178.004 81.36 176.588 81.36ZM195.02 81.36C193.436 81.36 192.008 80.964 190.736 80.172C189.464 79.38 188.468 78.3 187.748 76.932C187.028 75.564 186.668 74.028 186.668 72.324C186.668 70.596 187.028 69.048 187.748 67.68C188.468 66.312 189.464 65.232 190.736 64.44C192.008 63.648 193.436 63.252 195.02 63.252C196.268 63.252 197.384 63.504 198.368 64.008C199.352 64.512 200.132 65.22 200.708 66.132C201.308 67.02 201.632 68.028 201.68 69.156V75.42C201.632 76.572 201.308 77.592 200.708 78.48C200.132 79.368 199.352 80.076 198.368 80.604C197.384 81.108 196.268 81.36 195.02 81.36ZM195.884 77.004C197.204 77.004 198.272 76.572 199.088 75.708C199.904 74.82 200.312 73.68 200.312 72.288C200.312 71.376 200.12 70.572 199.736 69.876C199.376 69.156 198.86 68.604 198.188 68.22C197.54 67.812 196.772 67.608 195.884 67.608C195.02 67.608 194.252 67.812 193.58 68.22C192.932 68.604 192.416 69.156 192.032 69.876C191.672 70.572 191.492 71.376 191.492 72.288C191.492 73.224 191.672 74.052 192.032 74.772C192.416 75.468 192.932 76.02 193.58 76.428C194.252 76.812 195.02 77.004 195.884 77.004ZM200.06 81V76.32L200.816 72.072L200.06 67.896V63.612H204.74V81H200.06ZM208.912 81V63.612H213.628V81H208.912ZM220.252 81V70.74C220.252 69.732 219.928 68.952 219.28 68.4C218.656 67.824 217.876 67.536 216.94 67.536C216.316 67.536 215.752 67.668 215.248 67.932C214.744 68.172 214.348 68.532 214.06 69.012C213.772 69.492 213.628 70.068 213.628 70.74L211.792 69.84C211.792 68.496 212.08 67.332 212.656 66.348C213.256 65.364 214.06 64.608 215.068 64.08C216.076 63.528 217.216 63.252 218.488 63.252C219.688 63.252 220.78 63.528 221.764 64.08C222.748 64.608 223.528 65.364 224.104 66.348C224.68 67.308 224.968 68.472 224.968 69.84V81H220.252ZM231.592 81V70.74C231.592 69.732 231.268 68.952 230.62 68.4C229.996 67.824 229.216 67.536 228.28 67.536C227.68 67.536 227.116 67.668 226.588 67.932C226.084 68.172 225.688 68.532 225.4 69.012C225.112 69.492 224.968 70.068 224.968 70.74L222.268 70.092C222.364 68.7 222.736 67.5 223.384 66.492C224.032 65.46 224.884 64.668 225.94 64.116C226.996 63.54 228.172 63.252 229.468 63.252C230.764 63.252 231.928 63.528 232.96 64.08C233.992 64.608 234.808 65.376 235.408 66.384C236.008 67.392 236.308 68.592 236.308 69.984V81H231.592ZM240.131 81V54.972H244.847V81H240.131ZM257.342 81.36C255.518 81.36 253.898 80.976 252.482 80.208C251.066 79.416 249.938 78.336 249.098 76.968C248.282 75.6 247.874 74.04 247.874 72.288C247.874 70.56 248.27 69.024 249.062 67.68C249.878 66.312 250.982 65.232 252.374 64.44C253.766 63.624 255.314 63.216 257.018 63.216C258.698 63.216 260.174 63.6 261.446 64.368C262.742 65.112 263.75 66.144 264.47 67.464C265.214 68.76 265.586 70.236 265.586 71.892C265.586 72.204 265.562 72.528 265.514 72.864C265.49 73.176 265.43 73.536 265.334 73.944L250.718 73.98V70.452L263.138 70.416L261.23 71.892C261.182 70.86 260.99 69.996 260.654 69.3C260.342 68.604 259.874 68.076 259.25 67.716C258.65 67.332 257.906 67.14 257.018 67.14C256.082 67.14 255.266 67.356 254.57 67.788C253.874 68.196 253.334 68.784 252.95 69.552C252.59 70.296 252.41 71.184 252.41 72.216C252.41 73.272 252.602 74.196 252.986 74.988C253.394 75.756 253.97 76.356 254.714 76.788C255.458 77.196 256.322 77.4 257.306 77.4C258.194 77.4 258.998 77.256 259.718 76.968C260.438 76.656 261.062 76.2 261.59 75.6L264.362 78.372C263.522 79.356 262.49 80.1 261.266 80.604C260.066 81.108 258.758 81.36 257.342 81.36ZM274.478 81.396C273.494 81.396 272.522 81.264 271.562 81C270.626 80.736 269.762 80.376 268.97 79.92C268.178 79.44 267.494 78.864 266.918 78.192L269.726 75.348C270.326 76.02 271.022 76.524 271.814 76.86C272.606 77.196 273.482 77.364 274.442 77.364C275.21 77.364 275.786 77.256 276.17 77.04C276.578 76.824 276.782 76.5 276.782 76.068C276.782 75.588 276.566 75.216 276.134 74.952C275.726 74.688 275.186 74.472 274.514 74.304C273.842 74.112 273.134 73.908 272.39 73.692C271.67 73.452 270.974 73.152 270.302 72.792C269.63 72.408 269.078 71.892 268.646 71.244C268.238 70.572 268.034 69.708 268.034 68.652C268.034 67.548 268.298 66.588 268.826 65.772C269.378 64.956 270.158 64.32 271.166 63.864C272.174 63.408 273.362 63.18 274.73 63.18C276.17 63.18 277.466 63.432 278.618 63.936C279.794 64.44 280.766 65.196 281.534 66.204L278.69 69.048C278.162 68.4 277.562 67.932 276.89 67.644C276.242 67.356 275.534 67.212 274.766 67.212C274.07 67.212 273.53 67.32 273.146 67.536C272.786 67.752 272.606 68.052 272.606 68.436C272.606 68.868 272.81 69.204 273.218 69.444C273.65 69.684 274.202 69.9 274.874 70.092C275.546 70.26 276.242 70.464 276.962 70.704C277.706 70.92 278.402 71.232 279.05 71.64C279.722 72.048 280.262 72.588 280.67 73.26C281.102 73.932 281.318 74.796 281.318 75.852C281.318 77.556 280.706 78.912 279.482 79.92C278.258 80.904 276.59 81.396 274.478 81.396ZM290.474 81.396C289.49 81.396 288.518 81.264 287.558 81C286.622 80.736 285.758 80.376 284.966 79.92C284.174 79.44 283.49 78.864 282.914 78.192L285.722 75.348C286.322 76.02 287.018 76.524 287.81 76.86C288.602 77.196 289.478 77.364 290.438 77.364C291.206 77.364 291.782 77.256 292.166 77.04C292.574 76.824 292.778 76.5 292.778 76.068C292.778 75.588 292.562 75.216 292.13 74.952C291.722 74.688 291.182 74.472 290.51 74.304C289.838 74.112 289.13 73.908 288.386 73.692C287.666 73.452 286.97 73.152 286.298 72.792C285.626 72.408 285.074 71.892 284.642 71.244C284.234 70.572 284.03 69.708 284.03 68.652C284.03 67.548 284.294 66.588 284.822 65.772C285.374 64.956 286.154 64.32 287.162 63.864C288.17 63.408 289.358 63.18 290.726 63.18C292.166 63.18 293.462 63.432 294.614 63.936C295.79 64.44 296.762 65.196 297.53 66.204L294.686 69.048C294.158 68.4 293.558 67.932 292.886 67.644C292.238 67.356 291.53 67.212 290.762 67.212C290.066 67.212 289.526 67.32 289.142 67.536C288.782 67.752 288.602 68.052 288.602 68.436C288.602 68.868 288.806 69.204 289.214 69.444C289.646 69.684 290.198 69.9 290.87 70.092C291.542 70.26 292.238 70.464 292.958 70.704C293.702 70.92 294.398 71.232 295.046 71.64C295.718 72.048 296.258 72.588 296.666 73.26C297.098 73.932 297.314 74.796 297.314 75.852C297.314 77.556 296.702 78.912 295.478 79.92C294.254 80.904 292.586 81.396 290.474 81.396ZM300.494 81V54.972H305.21V81H300.494ZM314.861 81.144L307.589 63.612H312.701L317.525 77.004H315.797L320.801 63.612H325.949L318.209 81.108L314.861 81.144ZM310.037 88.272L315.329 77.076L318.209 81.108L315.041 88.272H310.037ZM345.017 81.36C343.769 81.36 342.641 81.096 341.633 80.568C340.625 80.04 339.821 79.32 339.221 78.408C338.621 77.496 338.297 76.476 338.249 75.348V69.156C338.297 68.028 338.621 67.02 339.221 66.132C339.845 65.22 340.661 64.512 341.669 64.008C342.677 63.504 343.793 63.252 345.017 63.252C346.625 63.252 348.065 63.648 349.337 64.44C350.609 65.232 351.605 66.312 352.325 67.68C353.069 69.048 353.441 70.596 353.441 72.324C353.441 74.028 353.069 75.564 352.325 76.932C351.605 78.3 350.609 79.38 349.337 80.172C348.065 80.964 346.625 81.36 345.017 81.36ZM344.225 77.004C345.089 77.004 345.845 76.812 346.493 76.428C347.165 76.02 347.681 75.468 348.041 74.772C348.425 74.052 348.617 73.224 348.617 72.288C348.617 71.376 348.425 70.572 348.041 69.876C347.681 69.156 347.165 68.604 346.493 68.22C345.821 67.812 345.053 67.608 344.189 67.608C343.325 67.608 342.557 67.812 341.885 68.22C341.237 68.604 340.721 69.156 340.337 69.876C339.977 70.572 339.797 71.376 339.797 72.288C339.797 73.224 339.977 74.052 340.337 74.772C340.721 75.468 341.249 76.02 341.921 76.428C342.593 76.812 343.361 77.004 344.225 77.004ZM335.369 81V54.972H340.085V67.896L339.293 72.072L340.049 76.32V81H335.369ZM361.478 81.144L354.206 63.612H359.318L364.142 77.004H362.414L367.418 63.612H372.566L364.826 81.108L361.478 81.144ZM356.654 88.272L361.946 77.076L364.826 81.108L361.658 88.272H356.654ZM10.26 126.36C8.508 126.36 6.924 125.964 5.508 125.172C4.116 124.356 3 123.264 2.16 121.896C1.344 120.504 0.936 118.956 0.936 117.252C0.936 115.548 1.344 114.024 2.16 112.68C2.976 111.312 4.092 110.232 5.508 109.44C6.924 108.624 8.496 108.216 10.224 108.216C12 108.216 13.584 108.624 14.976 109.44C16.392 110.232 17.508 111.312 18.324 112.68C19.14 114.024 19.548 115.548 19.548 117.252C19.548 118.956 19.14 120.504 18.324 121.896C17.508 123.264 16.392 124.356 14.976 125.172C13.584 125.964 12.012 126.36 10.26 126.36ZM10.224 121.968C11.112 121.968 11.892 121.776 12.564 121.392C13.26 120.984 13.788 120.432 14.148 119.736C14.532 119.016 14.724 118.2 14.724 117.288C14.724 116.376 14.532 115.572 14.148 114.876C13.764 114.18 13.236 113.64 12.564 113.256C11.892 112.848 11.112 112.644 10.224 112.644C9.36 112.644 8.592 112.848 7.92 113.256C7.248 113.64 6.72 114.18 6.336 114.876C5.952 115.572 5.76 116.376 5.76 117.288C5.76 118.2 5.952 119.016 6.336 119.736C6.72 120.432 7.248 120.984 7.92 121.392C8.592 121.776 9.36 121.968 10.224 121.968ZM30.0001 126.36C28.4641 126.36 27.0961 126.036 25.8961 125.388C24.7201 124.74 23.7961 123.84 23.1241 122.688C22.4521 121.536 22.1161 120.204 22.1161 118.692V108.612H26.8681V118.584C26.8681 119.304 26.9881 119.928 27.2281 120.456C27.4681 120.96 27.8281 121.344 28.3081 121.608C28.7881 121.872 29.3521 122.004 30.0001 122.004C30.9841 122.004 31.7521 121.704 32.3041 121.104C32.8561 120.504 33.1321 119.664 33.1321 118.584V108.612H37.8481V118.692C37.8481 120.228 37.5121 121.572 36.8401 122.724C36.1921 123.876 35.2681 124.776 34.0681 125.424C32.8921 126.048 31.5361 126.36 30.0001 126.36ZM41.6036 126V108.612H46.3196V126H41.6036ZM46.3196 116.388L44.4836 115.164C44.6996 113.028 45.3236 111.348 46.3556 110.124C47.3876 108.876 48.8756 108.252 50.8196 108.252C51.6596 108.252 52.4156 108.396 53.0876 108.684C53.7596 108.948 54.3716 109.392 54.9236 110.016L51.9716 113.4C51.7076 113.112 51.3836 112.896 50.9996 112.752C50.6396 112.608 50.2196 112.536 49.7396 112.536C48.7316 112.536 47.9036 112.86 47.2556 113.508C46.6316 114.132 46.3196 115.092 46.3196 116.388ZM75.9443 126V116.028C75.9443 114.996 75.6203 114.156 74.9723 113.508C74.3243 112.86 73.4843 112.536 72.4523 112.536C71.7803 112.536 71.1803 112.68 70.6523 112.968C70.1243 113.256 69.7043 113.664 69.3923 114.192C69.1043 114.72 68.9603 115.332 68.9603 116.028L67.1243 115.092C67.1243 113.724 67.4123 112.536 67.9883 111.528C68.5883 110.496 69.4043 109.692 70.4363 109.116C71.4923 108.54 72.6803 108.252 74.0003 108.252C75.2723 108.252 76.4123 108.576 77.4203 109.224C78.4283 109.848 79.2203 110.676 79.7963 111.708C80.3723 112.716 80.6602 113.808 80.6602 114.984V126H75.9443ZM64.2443 126V108.612H68.9603V126H64.2443ZM92.7751 126.36C90.9511 126.36 89.3311 125.976 87.9151 125.208C86.4991 124.416 85.3711 123.336 84.5311 121.968C83.7151 120.6 83.3071 119.04 83.3071 117.288C83.3071 115.56 83.7031 114.024 84.4951 112.68C85.3111 111.312 86.4151 110.232 87.8071 109.44C89.1991 108.624 90.7471 108.216 92.4511 108.216C94.1311 108.216 95.6071 108.6 96.8791 109.368C98.1751 110.112 99.1831 111.144 99.9031 112.464C100.647 113.76 101.019 115.236 101.019 116.892C101.019 117.204 100.995 117.528 100.947 117.864C100.923 118.176 100.863 118.536 100.767 118.944L86.1511 118.98V115.452L98.5711 115.416L96.6631 116.892C96.6151 115.86 96.4231 114.996 96.0871 114.3C95.7751 113.604 95.3071 113.076 94.6831 112.716C94.0831 112.332 93.3391 112.14 92.4511 112.14C91.5151 112.14 90.6991 112.356 90.0031 112.788C89.3071 113.196 88.7671 113.784 88.3831 114.552C88.0231 115.296 87.8431 116.184 87.8431 117.216C87.8431 118.272 88.0351 119.196 88.4191 119.988C88.8271 120.756 89.4031 121.356 90.1471 121.788C90.8911 122.196 91.7551 122.4 92.7391 122.4C93.6271 122.4 94.4311 122.256 95.1511 121.968C95.8711 121.656 96.4951 121.2 97.0231 120.6L99.7951 123.372C98.9551 124.356 97.9231 125.1 96.6991 125.604C95.4991 126.108 94.1911 126.36 92.7751 126.36ZM106.07 126V101.376H110.786V126H106.07ZM102.002 112.752V108.612H114.854V112.752H102.002ZM122.15 126L115.634 108.612H120.386L124.634 121.248L123.194 121.284L127.55 108.612H130.97L135.326 121.284L133.886 121.248L138.134 108.612H142.886L136.406 126H132.986L128.594 113.976H129.926L125.534 126H122.15ZM152.959 126.36C151.207 126.36 149.623 125.964 148.207 125.172C146.815 124.356 145.699 123.264 144.859 121.896C144.043 120.504 143.635 118.956 143.635 117.252C143.635 115.548 144.043 114.024 144.859 112.68C145.675 111.312 146.791 110.232 148.207 109.44C149.623 108.624 151.195 108.216 152.923 108.216C154.699 108.216 156.283 108.624 157.675 109.44C159.091 110.232 160.207 111.312 161.023 112.68C161.839 114.024 162.247 115.548 162.247 117.252C162.247 118.956 161.839 120.504 161.023 121.896C160.207 123.264 159.091 124.356 157.675 125.172C156.283 125.964 154.711 126.36 152.959 126.36ZM152.923 121.968C153.811 121.968 154.591 121.776 155.263 121.392C155.959 120.984 156.487 120.432 156.847 119.736C157.231 119.016 157.423 118.2 157.423 117.288C157.423 116.376 157.231 115.572 156.847 114.876C156.463 114.18 155.935 113.64 155.263 113.256C154.591 112.848 153.811 112.644 152.923 112.644C152.059 112.644 151.291 112.848 150.619 113.256C149.947 113.64 149.419 114.18 149.035 114.876C148.651 115.572 148.459 116.376 148.459 117.288C148.459 118.2 148.651 119.016 149.035 119.736C149.419 120.432 149.947 120.984 150.619 121.392C151.291 121.776 152.059 121.968 152.923 121.968ZM165.283 126V108.612H169.999V126H165.283ZM169.999 116.388L168.163 115.164C168.379 113.028 169.003 111.348 170.035 110.124C171.067 108.876 172.555 108.252 174.499 108.252C175.339 108.252 176.095 108.396 176.767 108.684C177.439 108.948 178.051 109.392 178.603 110.016L175.651 113.4C175.387 113.112 175.063 112.896 174.679 112.752C174.319 112.608 173.899 112.536 173.419 112.536C172.411 112.536 171.583 112.86 170.935 113.508C170.311 114.132 169.999 115.092 169.999 116.388ZM191.348 126L184.616 117.036L191.312 108.612H196.748L188.9 118.116L189.08 115.812L197.108 126H191.348ZM180.26 126V99.972H184.976V126H180.26ZM214.483 126.36C212.731 126.36 211.147 125.964 209.731 125.172C208.339 124.356 207.223 123.264 206.383 121.896C205.567 120.504 205.159 118.956 205.159 117.252C205.159 115.548 205.567 114.024 206.383 112.68C207.199 111.312 208.315 110.232 209.731 109.44C211.147 108.624 212.719 108.216 214.447 108.216C216.223 108.216 217.807 108.624 219.199 109.44C220.615 110.232 221.731 111.312 222.547 112.68C223.363 114.024 223.771 115.548 223.771 117.252C223.771 118.956 223.363 120.504 222.547 121.896C221.731 123.264 220.615 124.356 219.199 125.172C217.807 125.964 216.235 126.36 214.483 126.36ZM214.447 121.968C215.335 121.968 216.115 121.776 216.787 121.392C217.483 120.984 218.011 120.432 218.371 119.736C218.755 119.016 218.947 118.2 218.947 117.288C218.947 116.376 218.755 115.572 218.371 114.876C217.987 114.18 217.459 113.64 216.787 113.256C216.115 112.848 215.335 112.644 214.447 112.644C213.583 112.644 212.815 112.848 212.143 113.256C211.471 113.64 210.943 114.18 210.559 114.876C210.175 115.572 209.983 116.376 209.983 117.288C209.983 118.2 210.175 119.016 210.559 119.736C210.943 120.432 211.471 120.984 212.143 121.392C212.815 121.776 213.583 121.968 214.447 121.968ZM228.689 126V106.74C228.689 105.348 228.989 104.124 229.589 103.068C230.189 101.988 231.041 101.136 232.145 100.512C233.249 99.888 234.545 99.576 236.033 99.576C237.161 99.576 238.133 99.768 238.949 100.152C239.765 100.536 240.497 101.064 241.145 101.736L238.157 104.76C237.893 104.496 237.605 104.292 237.293 104.148C236.981 104.004 236.585 103.932 236.105 103.932C235.241 103.932 234.569 104.172 234.089 104.652C233.633 105.108 233.405 105.768 233.405 106.632V126H228.689ZM224.657 112.752V108.612H238.553V112.752H224.657ZM254.474 126.396C253.49 126.396 252.518 126.264 251.558 126C250.622 125.736 249.758 125.376 248.966 124.92C248.174 124.44 247.49 123.864 246.914 123.192L249.722 120.348C250.322 121.02 251.018 121.524 251.81 121.86C252.602 122.196 253.478 122.364 254.438 122.364C255.206 122.364 255.782 122.256 256.166 122.04C256.574 121.824 256.778 121.5 256.778 121.068C256.778 120.588 256.562 120.216 256.13 119.952C255.722 119.688 255.182 119.472 254.51 119.304C253.838 119.112 253.13 118.908 252.386 118.692C251.666 118.452 250.97 118.152 250.298 117.792C249.626 117.408 249.074 116.892 248.642 116.244C248.234 115.572 248.03 114.708 248.03 113.652C248.03 112.548 248.294 111.588 248.822 110.772C249.374 109.956 250.154 109.32 251.162 108.864C252.17 108.408 253.358 108.18 254.726 108.18C256.166 108.18 257.462 108.432 258.614 108.936C259.79 109.44 260.762 110.196 261.53 111.204L258.686 114.048C258.158 113.4 257.558 112.932 256.886 112.644C256.238 112.356 255.53 112.212 254.762 112.212C254.066 112.212 253.526 112.32 253.142 112.536C252.782 112.752 252.602 113.052 252.602 113.436C252.602 113.868 252.806 114.204 253.214 114.444C253.646 114.684 254.198 114.9 254.87 115.092C255.542 115.26 256.238 115.464 256.958 115.704C257.702 115.92 258.398 116.232 259.046 116.64C259.718 117.048 260.258 117.588 260.666 118.26C261.098 118.932 261.314 119.796 261.314 120.852C261.314 122.556 260.702 123.912 259.478 124.92C258.254 125.904 256.586 126.396 254.474 126.396ZM276.194 126V116.028C276.194 114.996 275.87 114.156 275.222 113.508C274.574 112.86 273.734 112.536 272.702 112.536C272.03 112.536 271.43 112.68 270.902 112.968C270.374 113.256 269.954 113.664 269.642 114.192C269.354 114.72 269.21 115.332 269.21 116.028L267.374 115.092C267.374 113.724 267.662 112.536 268.238 111.528C268.814 110.496 269.606 109.692 270.614 109.116C271.646 108.54 272.822 108.252 274.142 108.252C275.462 108.252 276.626 108.54 277.634 109.116C278.666 109.692 279.47 110.484 280.046 111.492C280.622 112.5 280.91 113.664 280.91 114.984V126H276.194ZM264.494 126V99.972H269.21V126H264.494ZM292.881 126.36C291.129 126.36 289.545 125.964 288.129 125.172C286.737 124.356 285.621 123.264 284.781 121.896C283.965 120.504 283.557 118.956 283.557 117.252C283.557 115.548 283.965 114.024 284.781 112.68C285.597 111.312 286.713 110.232 288.129 109.44C289.545 108.624 291.117 108.216 292.845 108.216C294.621 108.216 296.205 108.624 297.597 109.44C299.013 110.232 300.129 111.312 300.945 112.68C301.761 114.024 302.169 115.548 302.169 117.252C302.169 118.956 301.761 120.504 300.945 121.896C300.129 123.264 299.013 124.356 297.597 125.172C296.205 125.964 294.633 126.36 292.881 126.36ZM292.845 121.968C293.733 121.968 294.513 121.776 295.185 121.392C295.881 120.984 296.409 120.432 296.769 119.736C297.153 119.016 297.345 118.2 297.345 117.288C297.345 116.376 297.153 115.572 296.769 114.876C296.385 114.18 295.857 113.64 295.185 113.256C294.513 112.848 293.733 112.644 292.845 112.644C291.981 112.644 291.213 112.848 290.541 113.256C289.869 113.64 289.341 114.18 288.957 114.876C288.573 115.572 288.381 116.376 288.381 117.288C288.381 118.2 288.573 119.016 288.957 119.736C289.341 120.432 289.869 120.984 290.541 121.392C291.213 121.776 291.981 121.968 292.845 121.968ZM314.853 126.36C313.605 126.36 312.477 126.108 311.469 125.604C310.461 125.076 309.657 124.368 309.057 123.48C308.457 122.592 308.133 121.572 308.085 120.42V114.264C308.133 113.112 308.457 112.092 309.057 111.204C309.681 110.292 310.485 109.572 311.469 109.044C312.477 108.516 313.605 108.252 314.853 108.252C316.461 108.252 317.901 108.648 319.173 109.44C320.445 110.232 321.441 111.312 322.161 112.68C322.905 114.048 323.277 115.596 323.277 117.324C323.277 119.028 322.905 120.564 322.161 121.932C321.441 123.3 320.445 124.38 319.173 125.172C317.901 125.964 316.461 126.36 314.853 126.36ZM314.025 122.004C314.889 122.004 315.657 121.812 316.329 121.428C317.001 121.02 317.517 120.468 317.877 119.772C318.261 119.052 318.453 118.224 318.453 117.288C318.453 116.376 318.261 115.572 317.877 114.876C317.517 114.156 317.001 113.604 316.329 113.22C315.657 112.812 314.889 112.608 314.025 112.608C313.185 112.608 312.429 112.812 311.757 113.22C311.085 113.604 310.557 114.156 310.173 114.876C309.813 115.572 309.633 116.376 309.633 117.288C309.633 118.224 309.813 119.052 310.173 119.772C310.557 120.468 311.073 121.02 311.721 121.428C312.393 121.812 313.161 122.004 314.025 122.004ZM305.205 133.272V108.612H309.921V113.184L309.129 117.396L309.885 121.608V133.272H305.205ZM336.017 126.36C334.769 126.36 333.641 126.108 332.633 125.604C331.625 125.076 330.821 124.368 330.221 123.48C329.621 122.592 329.297 121.572 329.249 120.42V114.264C329.297 113.112 329.621 112.092 330.221 111.204C330.845 110.292 331.649 109.572 332.633 109.044C333.641 108.516 334.769 108.252 336.017 108.252C337.625 108.252 339.065 108.648 340.337 109.44C341.609 110.232 342.605 111.312 343.325 112.68C344.069 114.048 344.441 115.596 344.441 117.324C344.441 119.028 344.069 120.564 343.325 121.932C342.605 123.3 341.609 124.38 340.337 125.172C339.065 125.964 337.625 126.36 336.017 126.36ZM335.189 122.004C336.053 122.004 336.821 121.812 337.493 121.428C338.165 121.02 338.681 120.468 339.041 119.772C339.425 119.052 339.617 118.224 339.617 117.288C339.617 116.376 339.425 115.572 339.041 114.876C338.681 114.156 338.165 113.604 337.493 113.22C336.821 112.812 336.053 112.608 335.189 112.608C334.349 112.608 333.593 112.812 332.921 113.22C332.249 113.604 331.721 114.156 331.337 114.876C330.977 115.572 330.797 116.376 330.797 117.288C330.797 118.224 330.977 119.052 331.337 119.772C331.721 120.468 332.237 121.02 332.885 121.428C333.557 121.812 334.325 122.004 335.189 122.004ZM326.369 133.272V108.612H331.085V113.184L330.293 117.396L331.049 121.608V133.272H326.369ZM355.849 126.36C354.025 126.36 352.405 125.976 350.989 125.208C349.573 124.416 348.445 123.336 347.605 121.968C346.789 120.6 346.381 119.04 346.381 117.288C346.381 115.56 346.777 114.024 347.569 112.68C348.385 111.312 349.489 110.232 350.881 109.44C352.273 108.624 353.821 108.216 355.525 108.216C357.205 108.216 358.681 108.6 359.953 109.368C361.249 110.112 362.257 111.144 362.977 112.464C363.721 113.76 364.093 115.236 364.093 116.892C364.093 117.204 364.069 117.528 364.021 117.864C363.997 118.176 363.937 118.536 363.841 118.944L349.225 118.98V115.452L361.645 115.416L359.737 116.892C359.689 115.86 359.497 114.996 359.161 114.3C358.849 113.604 358.381 113.076 357.757 112.716C357.157 112.332 356.413 112.14 355.525 112.14C354.589 112.14 353.773 112.356 353.077 112.788C352.381 113.196 351.841 113.784 351.457 114.552C351.097 115.296 350.917 116.184 350.917 117.216C350.917 118.272 351.109 119.196 351.493 119.988C351.901 120.756 352.477 121.356 353.221 121.788C353.965 122.196 354.829 122.4 355.813 122.4C356.701 122.4 357.505 122.256 358.225 121.968C358.945 121.656 359.569 121.2 360.097 120.6L362.869 123.372C362.029 124.356 360.997 125.1 359.773 125.604C358.573 126.108 357.265 126.36 355.849 126.36ZM367.01 126V108.612H371.726V126H367.01ZM371.726 116.388L369.89 115.164C370.106 113.028 370.73 111.348 371.762 110.124C372.794 108.876 374.282 108.252 376.226 108.252C377.066 108.252 377.822 108.396 378.494 108.684C379.166 108.948 379.778 109.392 380.33 110.016L377.378 113.4C377.114 113.112 376.79 112.896 376.406 112.752C376.046 112.608 375.626 112.536 375.146 112.536C374.138 112.536 373.31 112.86 372.662 113.508C372.038 114.132 371.726 115.092 371.726 116.388ZM387.576 126.396C386.592 126.396 385.62 126.264 384.66 126C383.724 125.736 382.86 125.376 382.068 124.92C381.276 124.44 380.592 123.864 380.016 123.192L382.824 120.348C383.424 121.02 384.12 121.524 384.912 121.86C385.704 122.196 386.58 122.364 387.54 122.364C388.308 122.364 388.884 122.256 389.268 122.04C389.676 121.824 389.88 121.5 389.88 121.068C389.88 120.588 389.664 120.216 389.232 119.952C388.824 119.688 388.284 119.472 387.612 119.304C386.94 119.112 386.232 118.908 385.488 118.692C384.768 118.452 384.072 118.152 383.4 117.792C382.728 117.408 382.176 116.892 381.744 116.244C381.336 115.572 381.132 114.708 381.132 113.652C381.132 112.548 381.396 111.588 381.924 110.772C382.476 109.956 383.256 109.32 384.264 108.864C385.272 108.408 386.46 108.18 387.828 108.18C389.268 108.18 390.564 108.432 391.716 108.936C392.892 109.44 393.864 110.196 394.632 111.204L391.788 114.048C391.26 113.4 390.66 112.932 389.988 112.644C389.34 112.356 388.632 112.212 387.864 112.212C387.168 112.212 386.628 112.32 386.244 112.536C385.884 112.752 385.704 113.052 385.704 113.436C385.704 113.868 385.908 114.204 386.316 114.444C386.748 114.684 387.3 114.9 387.972 115.092C388.644 115.26 389.34 115.464 390.06 115.704C390.804 115.92 391.5 116.232 392.148 116.64C392.82 117.048 393.36 117.588 393.768 118.26C394.2 118.932 394.416 119.796 394.416 120.852C394.416 122.556 393.804 123.912 392.58 124.92C391.356 125.904 389.688 126.396 387.576 126.396Z" fill="white"/>
</svg>
